<?xml version="1.0" encoding="UTF-8"?>
<!DOCTYPE svg PUBLIC "-//W3C//DTD SVG 1.1//EN" "http://www.w3.org/Graphics/SVG/1.1/DTD/svg11.dtd">
<svg xmlns="http://www.w3.org/2000/svg" version="1.1" width="403px" height="361px" style="shape-rendering:geometricPrecision; text-rendering:geometricPrecision; image-rendering:optimizeQuality; fill-rule:evenodd; clip-rule:evenodd" xmlns:xlink="http://www.w3.org/1999/xlink">
<g><path style="opacity:1" fill="#fefefe" d="M -0.5,-0.5 C 133.833,-0.5 268.167,-0.5 402.5,-0.5C 402.5,119.833 402.5,240.167 402.5,360.5C 268.167,360.5 133.833,360.5 -0.5,360.5C -0.5,240.167 -0.5,119.833 -0.5,-0.5 Z"/></g>
<g><path style="opacity:1" fill="#02abe5" d="M 115.5,13.5 C 117.265,14.4614 119.265,14.7947 121.5,14.5C 122.183,16.1765 123.517,16.8432 125.5,16.5C 125.833,16.5 126.167,16.5 126.5,16.5C 121.069,19.4104 121.402,21.4104 127.5,22.5C 127.5,23.5 127.5,24.5 127.5,25.5C 129.103,25.6882 130.437,25.1882 131.5,24C 130.315,22.647 128.981,21.4803 127.5,20.5C 127.833,20.1667 128.167,19.8333 128.5,19.5C 131.932,21.4797 135.598,22.9797 139.5,24C 140.711,25.1131 140.711,26.2798 139.5,27.5C 141.44,28.5284 143.44,28.5284 145.5,27.5C 150.09,29.2154 154.757,30.5488 159.5,31.5C 159.5,31.8333 159.5,32.1667 159.5,32.5C 162.757,35.2277 166.257,37.8944 170,40.5C 170.167,42.1667 170.333,43.8333 170.5,45.5C 169.165,56.0071 167.498,66.3404 165.5,76.5C 165.5,78.5 165.5,80.5 165.5,82.5C 165.5,85.1667 165.5,87.8333 165.5,90.5C 163.631,92.6353 162.964,95.3019 163.5,98.5C 163.5,102.833 163.5,107.167 163.5,111.5C 161.886,119.61 161.22,127.944 161.5,136.5C 159.541,142.75 158.874,149.416 159.5,156.5C 159.5,190.5 159.5,224.5 159.5,258.5C 158.88,264.926 159.547,270.926 161.5,276.5C 161.5,280.5 161.5,284.5 161.5,288.5C 162.833,296.167 162.833,303.833 161.5,311.5C 162.833,311.5 164.167,311.5 165.5,311.5C 165.5,310.5 165.5,309.5 165.5,308.5C 167.144,308.714 168.644,308.38 170,307.5C 170.175,304.843 170.008,302.176 169.5,299.5C 170.5,299.5 171.5,299.5 172.5,299.5C 173.021,294.352 174.021,289.352 175.5,284.5C 175.5,283.167 175.5,281.833 175.5,280.5C 175.5,279.833 175.5,279.167 175.5,278.5C 176.467,279.806 177.801,280.473 179.5,280.5C 178.715,276.36 179.881,273.027 183,270.5C 183.494,268.866 183.66,267.199 183.5,265.5C 184.93,265.421 186.264,265.754 187.5,266.5C 188.23,264.659 188.897,262.825 189.5,261C 194.426,260.527 195.76,262.694 193.5,267.5C 190.807,269.041 188.141,270.374 185.5,271.5C 185.126,274.972 186.126,277.972 188.5,280.5C 190.864,266.486 192.864,266.319 194.5,280C 194.833,280.167 195.167,280.333 195.5,280.5C 195.975,275.626 197.975,274.626 201.5,277.5C 201.5,278.5 201.5,279.5 201.5,280.5C 198.11,281.944 196.777,284.61 197.5,288.5C 197.5,289.833 197.5,291.167 197.5,292.5C 196.167,292.5 194.833,292.5 193.5,292.5C 193.5,295.167 193.5,297.833 193.5,300.5C 189.31,304.903 187.31,310.236 187.5,316.5C 187.5,318.5 187.5,320.5 187.5,322.5C 185.964,324.025 184.964,326.025 184.5,328.5C 183.526,330.743 183.192,333.076 183.5,335.5C 181.758,338.145 181.091,341.145 181.5,344.5C 180.833,344.5 180.167,344.5 179.5,344.5C 177.517,344.157 176.183,344.824 175.5,346.5C 174.167,346.5 172.833,346.5 171.5,346.5C 165.172,347.768 158.839,347.768 152.5,346.5C 152.67,345.178 152.337,344.011 151.5,343C 148.5,342.667 145.5,342.333 142.5,342C 139.807,341.657 137.807,340.324 136.5,338C 134.167,337.667 131.833,337.333 129.5,337C 128.663,335.989 128.33,334.822 128.5,333.5C 126.784,333.629 125.117,333.962 123.5,334.5C 122.833,334.5 122.167,334.5 121.5,334.5C 120.969,331.763 120.136,329.096 119,326.5C 118.617,327.056 118.117,327.389 117.5,327.5C 117.923,325.219 117.256,323.552 115.5,322.5C 115.5,320.833 115.5,319.167 115.5,317.5C 115.946,314.99 115.28,312.99 113.5,311.5C 113.5,308.5 113.5,305.5 113.5,302.5C 113.663,300.143 113.497,297.81 113,295.5C 112.617,294.944 112.117,294.611 111.5,294.5C 111.5,293.167 111.5,291.833 111.5,290.5C 112.103,285.381 111.436,280.715 109.5,276.5C 109.5,272.833 109.5,269.167 109.5,265.5C 109.451,261.922 108.785,258.589 107.5,255.5C 107.5,248.833 107.5,242.167 107.5,235.5C 107.5,209.167 107.5,182.833 107.5,156.5C 107.5,143.167 107.5,129.833 107.5,116.5C 109.461,109.913 110.128,102.913 109.5,95.5C 110.498,68.3384 110.831,41.0051 110.5,13.5C 112.167,13.5 113.833,13.5 115.5,13.5 Z"/></g>
<g><path style="opacity:1" fill="#77cbf1" d="M 121.5,14.5 C 123.483,14.1568 124.817,14.8235 125.5,16.5C 123.517,16.8432 122.183,16.1765 121.5,14.5 Z"/></g>
<g><path style="opacity:1" fill="#baf8fe" d="M 109.5,12.5 C 109.5,30.5 109.5,48.5 109.5,66.5C 109.167,66.5 108.833,66.5 108.5,66.5C 108.83,49.3251 108.497,32.3251 107.5,15.5C 107.285,13.8212 107.952,12.8212 109.5,12.5 Z"/></g>
<g><path style="opacity:1" fill="#def9fd" d="M 115.5,12.5 C 120.547,13.0069 125.547,13.8403 130.5,15C 133.29,15.5609 135.623,16.8942 137.5,19C 140.347,19.9439 142.847,19.4439 145,17.5C 146.188,18.5634 146.688,19.8967 146.5,21.5C 147.5,21.5 148.5,21.5 149.5,21.5C 149.5,22.5 149.5,23.5 149.5,24.5C 147.396,24.7989 145.396,24.4656 143.5,23.5C 138.11,20.3734 132.444,18.04 126.5,16.5C 126.167,16.5 125.833,16.5 125.5,16.5C 124.817,14.8235 123.483,14.1568 121.5,14.5C 119.265,14.7947 117.265,14.4614 115.5,13.5C 115.5,13.1667 115.5,12.8333 115.5,12.5 Z"/></g>
<g><path style="opacity:1" fill="#daf9fd" d="M 333.5,28.5 C 329.074,25.9543 324.408,23.9543 319.5,22.5C 319.03,21.3065 318.03,20.6399 316.5,20.5C 314.465,21.2043 312.465,21.871 310.5,22.5C 310.953,21.5416 311.619,20.7083 312.5,20C 317.511,19.6117 322.511,19.7784 327.5,20.5C 327.478,23.9978 328.978,25.3311 332,24.5C 332.791,25.745 333.291,27.0783 333.5,28.5 Z"/></g>
<g><path style="opacity:1" fill="#50b9db" d="M 319.5,22.5 C 316.495,24.2994 313.162,24.9661 309.5,24.5C 309.328,23.5084 309.662,22.8417 310.5,22.5C 312.465,21.871 314.465,21.2043 316.5,20.5C 318.03,20.6399 319.03,21.3065 319.5,22.5 Z"/></g>
<g><path style="opacity:1" fill="#29aad8" d="M 126.5,16.5 C 132.444,18.04 138.11,20.3734 143.5,23.5C 145.396,24.4656 147.396,24.7989 149.5,24.5C 152.767,26.8111 156.1,29.1444 159.5,31.5C 154.757,30.5488 150.09,29.2154 145.5,27.5C 143.44,28.5284 141.44,28.5284 139.5,27.5C 140.711,26.2798 140.711,25.1131 139.5,24C 135.598,22.9797 131.932,21.4797 128.5,19.5C 128.167,19.8333 127.833,20.1667 127.5,20.5C 128.981,21.4803 130.315,22.647 131.5,24C 130.437,25.1882 129.103,25.6882 127.5,25.5C 127.5,24.5 127.5,23.5 127.5,22.5C 121.402,21.4104 121.069,19.4104 126.5,16.5 Z"/></g>
<g><path style="opacity:1" fill="#0eace4" d="M 319.5,22.5 C 324.408,23.9543 329.074,25.9543 333.5,28.5C 333.5,29.8333 334.167,30.5 335.5,30.5C 342.446,34.7734 347.113,40.7734 349.5,48.5C 346.194,48.8192 343.527,50.1525 341.5,52.5C 338.489,53.6693 335.822,55.336 333.5,57.5C 331.874,55.7568 329.874,55.2568 327.5,56C 325.374,60.5223 322.374,64.3557 318.5,67.5C 317.548,69.0453 317.215,70.712 317.5,72.5C 303.395,88.9477 290.395,106.281 278.5,124.5C 277.571,125.689 277.238,127.022 277.5,128.5C 276.265,128.721 275.265,129.388 274.5,130.5C 272.807,133.886 271.14,137.22 269.5,140.5C 267.026,143.43 265.026,146.763 263.5,150.5C 261.685,151.63 259.685,152.296 257.5,152.5C 257.682,154.591 257.348,156.591 256.5,158.5C 255.675,159.386 254.675,159.719 253.5,159.5C 252.29,162.061 250.624,164.395 248.5,166.5C 245.72,175.701 242.72,184.368 239.5,192.5C 235.5,201.833 231.5,211.167 227.5,220.5C 225.153,222.527 223.819,225.194 223.5,228.5C 220.445,234.997 217.778,241.664 215.5,248.5C 214.057,249.335 213.057,250.668 212.5,252.5C 211.285,255.809 210.285,259.142 209.5,262.5C 207.824,263.183 207.157,264.517 207.5,266.5C 205.824,267.183 205.157,268.517 205.5,270.5C 205.5,271.167 205.5,271.833 205.5,272.5C 203.946,273.914 202.612,275.581 201.5,277.5C 197.975,274.626 195.975,275.626 195.5,280.5C 195.167,280.333 194.833,280.167 194.5,280C 192.864,266.319 190.864,266.486 188.5,280.5C 186.126,277.972 185.126,274.972 185.5,271.5C 188.141,270.374 190.807,269.041 193.5,267.5C 195.76,262.694 194.426,260.527 189.5,261C 188.897,262.825 188.23,264.659 187.5,266.5C 186.264,265.754 184.93,265.421 183.5,265.5C 185.147,262.079 185.813,258.413 185.5,254.5C 187.139,249.875 188.806,245.209 190.5,240.5C 191.057,238.668 192.057,237.335 193.5,236.5C 195.19,233.815 196.69,230.815 198,227.5C 198.494,225.866 198.66,224.199 198.5,222.5C 199.5,222.5 200.5,222.5 201.5,222.5C 201.5,220.167 201.5,217.833 201.5,215.5C 201.5,215.167 201.5,214.833 201.5,214.5C 204.55,211.138 206.883,207.138 208.5,202.5C 209.325,201.614 210.325,201.281 211.5,201.5C 211.652,197.076 212.319,192.743 213.5,188.5C 213.5,187.833 213.5,187.167 213.5,186.5C 215.176,185.817 215.843,184.483 215.5,182.5C 216.485,177.863 218.485,173.863 221.5,170.5C 221.81,171.738 222.31,171.738 223,170.5C 223.833,168.5 224.667,166.5 225.5,164.5C 226.192,165.025 226.692,165.692 227,166.5C 227.497,164.19 227.663,161.857 227.5,159.5C 229.167,159.5 230.833,159.5 232.5,159.5C 231.833,156.5 231.167,153.5 230.5,150.5C 231.478,148.544 232.478,146.544 233.5,144.5C 235.759,143.656 236.759,141.989 236.5,139.5C 237.833,139.5 239.167,139.5 240.5,139.5C 240.81,136.287 240.477,133.287 239.5,130.5C 240.167,129.167 240.833,127.833 241.5,126.5C 243.847,124.473 245.181,121.806 245.5,118.5C 246.833,118.5 247.5,117.833 247.5,116.5C 249.691,111.437 252.358,106.77 255.5,102.5C 257.607,102.278 259.274,101.278 260.5,99.5C 261.108,93.612 263.775,88.9453 268.5,85.5C 269.474,83.2573 269.808,80.924 269.5,78.5C 269.5,77.8333 269.5,77.1667 269.5,76.5C 271.593,75.9553 273.593,75.122 275.5,74C 279.356,69.6451 283.023,65.1451 286.5,60.5C 285.978,59.3926 285.645,58.2259 285.5,57C 286.618,54.941 287.285,52.7743 287.5,50.5C 287.5,49.1667 287.5,47.8333 287.5,46.5C 293.752,39.2442 300.419,32.2442 307.5,25.5C 307.842,24.6618 308.508,24.3284 309.5,24.5C 313.162,24.9661 316.495,24.2994 319.5,22.5 Z"/></g>
<g><path style="opacity:1" fill="#95e4fb" d="M 333.5,28.5 C 334.833,28.5 335.5,29.1667 335.5,30.5C 335.5,29.1667 334.833,28.5 333.5,28.5 Z"/></g>
<g><path style="opacity:1" fill="#c6f4fe" d="M 163.5,32.5 C 165.924,33.0305 168.257,33.8638 170.5,35C 171.337,36.0113 171.67,37.1779 171.5,38.5C 168.757,36.4767 166.09,34.4767 163.5,32.5 Z"/></g>
<g><path style="opacity:1" fill="#e7fbfd" d="M 307.5,25.5 C 300.419,32.2442 293.752,39.2442 287.5,46.5C 287.5,45.5 287.5,44.5 287.5,43.5C 288.5,43.5 289.5,43.5 290.5,43.5C 290.337,41.1432 290.503,38.8098 291,36.5C 292.705,35.2367 294.372,34.9034 296,35.5C 296.172,27.7942 300.005,24.4609 307.5,25.5 Z"/></g>
<g><path style="opacity:1" fill="#99cde8" d="M 173.5,40.5 C 174.586,40.62 175.253,41.2867 175.5,42.5C 175.253,43.7133 174.586,44.38 173.5,44.5C 173.5,43.1667 173.5,41.8333 173.5,40.5 Z"/></g>
<g><path style="opacity:1" fill="#31acd7" d="M 159.5,32.5 C 160.833,32.5 162.167,32.5 163.5,32.5C 166.09,34.4767 168.757,36.4767 171.5,38.5C 172.833,38.5 173.5,39.1667 173.5,40.5C 173.5,41.8333 173.5,43.1667 173.5,44.5C 173.5,45.8333 173.5,47.1667 173.5,48.5C 171.926,50.1016 171.259,52.1016 171.5,54.5C 171.5,55.1667 171.5,55.8333 171.5,56.5C 169.744,57.5521 169.077,59.2188 169.5,61.5C 168.833,66.5 168.167,71.5 167.5,76.5C 166.833,76.5 166.167,76.5 165.5,76.5C 167.498,66.3404 169.165,56.0071 170.5,45.5C 170.333,43.8333 170.167,42.1667 170,40.5C 166.257,37.8944 162.757,35.2277 159.5,32.5 Z"/></g>
<g><path style="opacity:1" fill="#b5e9f5" d="M 349.5,48.5 C 347.685,51.4074 345.019,52.7407 341.5,52.5C 343.527,50.1525 346.194,48.8192 349.5,48.5 Z"/></g>
<g><path style="opacity:1" fill="#b1e8f9" d="M 173.5,48.5 C 173.741,50.8984 173.074,52.8984 171.5,54.5C 171.259,52.1016 171.926,50.1016 173.5,48.5 Z"/></g>
<g><path style="opacity:1" fill="#d6f5fd" d="M 341.5,52.5 C 341.5,53.5 341.5,54.5 341.5,55.5C 338.857,56.454 336.19,57.454 333.5,58.5C 333.5,58.1667 333.5,57.8333 333.5,57.5C 335.822,55.336 338.489,53.6693 341.5,52.5 Z"/></g>
<g><path style="opacity:1" fill="#2dafde" d="M 287.5,50.5 C 287.285,52.7743 286.618,54.941 285.5,57C 285.645,58.2259 285.978,59.3926 286.5,60.5C 283.023,65.1451 279.356,69.6451 275.5,74C 273.593,75.122 271.593,75.9553 269.5,76.5C 274.051,68.269 279.051,60.269 284.5,52.5C 285.265,51.3881 286.265,50.7214 287.5,50.5 Z"/></g>
<g><path style="opacity:1" fill="#b3def2" d="M 171.5,56.5 C 171.662,58.5273 171.495,60.5273 171,62.5C 170.617,61.944 170.117,61.6107 169.5,61.5C 169.077,59.2188 169.744,57.5521 171.5,56.5 Z"/></g>
<g><path style="opacity:1" fill="#4bb4db" d="M 333.5,57.5 C 333.5,57.8333 333.5,58.1667 333.5,58.5C 328.167,63.1667 322.833,67.8333 317.5,72.5C 317.215,70.712 317.548,69.0453 318.5,67.5C 322.374,64.3557 325.374,60.5223 327.5,56C 329.874,55.2568 331.874,55.7568 333.5,57.5 Z"/></g>
<g><path style="opacity:1" fill="#1ca2d2" d="M 109.5,12.5 C 111.5,12.5 113.5,12.5 115.5,12.5C 115.5,12.8333 115.5,13.1667 115.5,13.5C 113.833,13.5 112.167,13.5 110.5,13.5C 110.831,41.0051 110.498,68.3384 109.5,95.5C 109.5,85.8333 109.5,76.1667 109.5,66.5C 109.5,48.5 109.5,30.5 109.5,12.5 Z"/></g>
<g><path style="opacity:1" fill="#88d0f6" d="M 165.5,76.5 C 166.167,76.5 166.833,76.5 167.5,76.5C 167.125,78.6976 166.458,80.6976 165.5,82.5C 165.5,80.5 165.5,78.5 165.5,76.5 Z"/></g>
<g><path style="opacity:1" fill="#78d1ee" d="M 165.5,90.5 C 165.5,92.1667 165.5,93.8333 165.5,95.5C 164.833,96.5 164.167,97.5 163.5,98.5C 162.964,95.3019 163.631,92.6353 165.5,90.5 Z"/></g>
<g><path style="opacity:1" fill="#3aaddb" d="M 269.5,78.5 C 269.808,80.924 269.474,83.2573 268.5,85.5C 263.775,88.9453 261.108,93.612 260.5,99.5C 259.274,101.278 257.607,102.278 255.5,102.5C 259.114,95.2729 262.78,87.9396 266.5,80.5C 267.265,79.3881 268.265,78.7214 269.5,78.5 Z"/></g>
<g><path style="opacity:1" fill="#d6f8fb" d="M 165.5,95.5 C 165.332,101.034 164.665,106.367 163.5,111.5C 163.5,107.167 163.5,102.833 163.5,98.5C 164.167,97.5 164.833,96.5 165.5,95.5 Z"/></g>
<g><path style="opacity:1" fill="#79cdf2" d="M 108.5,66.5 C 108.833,66.5 109.167,66.5 109.5,66.5C 109.5,76.1667 109.5,85.8333 109.5,95.5C 110.128,102.913 109.461,109.913 107.5,116.5C 108.017,99.8378 108.35,83.1712 108.5,66.5 Z"/></g>
<g><path style="opacity:1" fill="#a8e7fe" d="M 247.5,116.5 C 247.5,117.833 246.833,118.5 245.5,118.5C 245.5,117.167 246.167,116.5 247.5,116.5 Z"/></g>
<g><path style="opacity:1" fill="#d5f4fd" d="M 245.5,118.5 C 245.181,121.806 243.847,124.473 241.5,126.5C 241.739,124.533 241.406,122.699 240.5,121C 242.193,120.153 243.86,119.32 245.5,118.5 Z"/></g>
<g><path style="opacity:1" fill="#d1eff8" d="M 107.5,15.5 C 108.497,32.3251 108.83,49.3251 108.5,66.5C 108.35,83.1712 108.017,99.8378 107.5,116.5C 107.5,129.833 107.5,143.167 107.5,156.5C 106.833,157.5 106.167,158.5 105.5,159.5C 105.5,152.5 105.5,145.5 105.5,138.5C 107.128,97.5388 107.795,56.5388 107.5,15.5 Z"/></g>
<g><path style="opacity:1" fill="#d5f6fe" d="M 277.5,128.5 C 276.324,132.834 274.657,136.834 272.5,140.5C 271.5,140.5 270.5,140.5 269.5,140.5C 271.14,137.22 272.807,133.886 274.5,130.5C 275.265,129.388 276.265,128.721 277.5,128.5 Z"/></g>
<g><path style="opacity:1" fill="#53b9dc" d="M 239.5,130.5 C 240.477,133.287 240.81,136.287 240.5,139.5C 239.167,139.5 237.833,139.5 236.5,139.5C 236.759,141.989 235.759,143.656 233.5,144.5C 233.884,142.071 234.551,139.737 235.5,137.5C 237.083,135.337 238.416,133.004 239.5,130.5 Z"/></g>
<g><path style="opacity:1" fill="#e9f9fc" d="M 235.5,137.5 C 234.551,139.737 233.884,142.071 233.5,144.5C 232.478,146.544 231.478,148.544 230.5,150.5C 227.678,154.297 225.344,158.297 223.5,162.5C 224.826,159.519 224.826,156.519 223.5,153.5C 223.833,152.833 224.167,152.167 224.5,151.5C 225.425,152.641 226.259,152.641 227,151.5C 227,148.833 227,146.167 227,143.5C 228.749,142.701 230.082,143.368 231,145.5C 232.375,143.063 232.875,140.397 232.5,137.5C 233.5,137.5 234.5,137.5 235.5,137.5 Z"/></g>
<g><path style="opacity:1" fill="#98d7f3" d="M 161.5,136.5 C 161.825,144.019 161.492,151.352 160.5,158.5C 160.672,157.508 160.338,156.842 159.5,156.5C 158.874,149.416 159.541,142.75 161.5,136.5 Z"/></g>
<g><path style="opacity:1" fill="#3db3dd" d="M 230.5,150.5 C 231.167,153.5 231.833,156.5 232.5,159.5C 230.833,159.5 229.167,159.5 227.5,159.5C 227.663,161.857 227.497,164.19 227,166.5C 226.692,165.692 226.192,165.025 225.5,164.5C 224.667,166.5 223.833,168.5 223,170.5C 222.31,171.738 221.81,171.738 221.5,170.5C 222.167,167.833 222.833,165.167 223.5,162.5C 225.344,158.297 227.678,154.297 230.5,150.5 Z"/></g>
<g><path style="opacity:1" fill="#33acda" d="M 263.5,150.5 C 258.523,159.112 253.523,167.778 248.5,176.5C 246.917,178.99 245.917,181.657 245.5,184.5C 243.5,187.167 241.5,189.833 239.5,192.5C 242.72,184.368 245.72,175.701 248.5,166.5C 250.624,164.395 252.29,162.061 253.5,159.5C 254.675,159.719 255.675,159.386 256.5,158.5C 257.348,156.591 257.682,154.591 257.5,152.5C 259.685,152.296 261.685,151.63 263.5,150.5 Z"/></g>
<g><path style="opacity:1" fill="#86cde9" d="M 215.5,182.5 C 215.843,184.483 215.176,185.817 213.5,186.5C 213.157,184.517 213.824,183.183 215.5,182.5 Z"/></g>
<g><path style="opacity:1" fill="#47b5db" d="M 213.5,188.5 C 212.319,192.743 211.652,197.076 211.5,201.5C 210.325,201.281 209.325,201.614 208.5,202.5C 206.883,207.138 204.55,211.138 201.5,214.5C 203.807,208.542 206.14,202.542 208.5,196.5C 209.716,193.367 211.383,190.7 213.5,188.5 Z"/></g>
<g><path style="opacity:1" fill="#f0fdfd" d="M 105.5,138.5 C 105.5,145.5 105.5,152.5 105.5,159.5C 105.333,185.502 105.5,211.502 106,237.5C 106.278,236.584 106.778,235.918 107.5,235.5C 107.5,242.167 107.5,248.833 107.5,255.5C 107.335,259.182 107.501,262.848 108,266.5C 108.383,265.944 108.883,265.611 109.5,265.5C 109.5,269.167 109.5,272.833 109.5,276.5C 109.353,281.214 109.686,285.881 110.5,290.5C 109.778,290.082 109.278,289.416 109,288.5C 108.913,281.361 107.913,274.361 106,267.5C 105.272,262.467 105.439,257.467 106.5,252.5C 104.552,245.897 103.552,239.064 103.5,232C 104.109,200.671 104.776,169.505 105.5,138.5 Z"/></g>
<g><path style="opacity:1" fill="#def5fa" d="M 245.5,184.5 C 245.318,187.094 244.318,189.261 242.5,191C 243.059,191.725 243.392,192.558 243.5,193.5C 240.268,196.072 238.268,199.405 237.5,203.5C 237.709,204.086 238.043,204.586 238.5,205C 237.069,205.465 235.903,206.299 235,207.5C 235.992,210.57 235.659,213.57 234,216.5C 232.098,218.763 229.932,220.096 227.5,220.5C 231.5,211.167 235.5,201.833 239.5,192.5C 241.5,189.833 243.5,187.167 245.5,184.5 Z"/></g>
<g><path style="opacity:1" fill="#4db4dc" d="M 201.5,215.5 C 201.5,217.833 201.5,220.167 201.5,222.5C 200.5,222.5 199.5,222.5 198.5,222.5C 198.66,224.199 198.494,225.866 198,227.5C 196.69,230.815 195.19,233.815 193.5,236.5C 193.707,232.094 195.04,228.094 197.5,224.5C 198.423,221.223 199.256,217.89 200,214.5C 200.383,215.056 200.883,215.389 201.5,215.5 Z"/></g>
<g><path style="opacity:1" fill="#92d5f4" d="M 107.5,156.5 C 107.5,182.833 107.5,209.167 107.5,235.5C 106.778,235.918 106.278,236.584 106,237.5C 105.5,211.502 105.333,185.502 105.5,159.5C 106.167,158.5 106.833,157.5 107.5,156.5 Z"/></g>
<g><path style="opacity:1" fill="#aee4f2" d="M 227.5,220.5 C 227.005,222.482 226.505,224.482 226,226.5C 225.583,227.756 224.75,228.423 223.5,228.5C 223.819,225.194 225.153,222.527 227.5,220.5 Z"/></g>
<g><path style="opacity:1" fill="#e2f8fd" d="M 197.5,224.5 C 195.04,228.094 193.707,232.094 193.5,236.5C 192.057,237.335 191.057,238.668 190.5,240.5C 188.806,245.209 187.139,249.875 185.5,254.5C 184.833,254.5 184.167,254.5 183.5,254.5C 183.34,252.801 183.506,251.134 184,249.5C 186.196,244.321 188.696,239.321 191.5,234.5C 192.089,231.163 193.089,227.996 194.5,225C 195.448,224.517 196.448,224.351 197.5,224.5 Z"/></g>
<g><path style="opacity:1" fill="#d3f5fd" d="M 215.5,248.5 C 214.629,252.578 213.463,256.578 212,260.5C 211.583,261.756 210.75,262.423 209.5,262.5C 210.285,259.142 211.285,255.809 212.5,252.5C 213.057,250.668 214.057,249.335 215.5,248.5 Z"/></g>
<g><path style="opacity:1" fill="#a5d2eb" d="M 107.5,255.5 C 108.785,258.589 109.451,261.922 109.5,265.5C 108.883,265.611 108.383,265.944 108,266.5C 107.501,262.848 107.335,259.182 107.5,255.5 Z"/></g>
<g><path style="opacity:1" fill="#3eb4db" d="M 183.5,254.5 C 184.167,254.5 184.833,254.5 185.5,254.5C 185.813,258.413 185.147,262.079 183.5,265.5C 183.66,267.199 183.494,268.866 183,270.5C 179.881,273.027 178.715,276.36 179.5,280.5C 177.801,280.473 176.467,279.806 175.5,278.5C 176.833,275.167 178.167,271.833 179.5,268.5C 181.176,267.817 181.843,266.483 181.5,264.5C 182.576,261.266 183.243,257.932 183.5,254.5 Z"/></g>
<g><path style="opacity:1" fill="#87d8f6" d="M 181.5,264.5 C 181.843,266.483 181.176,267.817 179.5,268.5C 179.157,266.517 179.824,265.183 181.5,264.5 Z"/></g>
<g><path style="opacity:1" fill="#aae7f8" d="M 207.5,266.5 C 207.843,268.483 207.176,269.817 205.5,270.5C 205.157,268.517 205.824,267.183 207.5,266.5 Z"/></g>
<g><path style="opacity:1" fill="#87cfed" d="M 159.5,258.5 C 161.453,264.074 162.12,270.074 161.5,276.5C 159.547,270.926 158.88,264.926 159.5,258.5 Z"/></g>
<g><path style="opacity:1" fill="#b5e9f8" d="M 205.5,272.5 C 205.005,274.482 204.505,276.482 204,278.5C 203.583,279.756 202.75,280.423 201.5,280.5C 201.5,279.5 201.5,278.5 201.5,277.5C 202.612,275.581 203.946,273.914 205.5,272.5 Z"/></g>
<g><path style="opacity:1" fill="#99def8" d="M 175.5,280.5 C 175.5,281.833 175.5,283.167 175.5,284.5C 174.833,284.5 174.167,284.5 173.5,284.5C 173.157,282.517 173.824,281.183 175.5,280.5 Z"/></g>
<g><path style="opacity:1" fill="#a7dbf2" d="M 109.5,276.5 C 111.436,280.715 112.103,285.381 111.5,290.5C 111.167,290.5 110.833,290.5 110.5,290.5C 109.686,285.881 109.353,281.214 109.5,276.5 Z"/></g>
<g><path style="opacity:1" fill="#55b1d7" d="M 201.5,280.5 C 201.181,283.806 199.847,286.473 197.5,288.5C 196.777,284.61 198.11,281.944 201.5,280.5 Z"/></g>
<g><path style="opacity:1" fill="#42b5e1" d="M 173.5,284.5 C 174.167,284.5 174.833,284.5 175.5,284.5C 174.021,289.352 173.021,294.352 172.5,299.5C 171.5,299.5 170.5,299.5 169.5,299.5C 170.008,302.176 170.175,304.843 170,307.5C 168.644,308.38 167.144,308.714 165.5,308.5C 165.5,309.5 165.5,310.5 165.5,311.5C 164.167,311.5 162.833,311.5 161.5,311.5C 162.833,303.833 162.833,296.167 161.5,288.5C 162.788,292.972 163.788,297.638 164.5,302.5C 165.167,303.167 165.833,303.833 166.5,304.5C 168.126,300.629 169.126,296.629 169.5,292.5C 171.847,290.473 173.181,287.806 173.5,284.5 Z"/></g>
<g><path style="opacity:1" fill="#def9fb" d="M 159.5,156.5 C 160.338,156.842 160.672,157.508 160.5,158.5C 159.967,201.536 160.8,244.536 163,287.5C 165.003,290.5 165.836,293.833 165.5,297.5C 166.5,297.5 167.5,297.5 168.5,297.5C 168.557,295.116 168.223,292.782 167.5,290.5C 167.833,289.833 168.167,289.167 168.5,288.5C 169.429,289.689 169.762,291.022 169.5,292.5C 169.126,296.629 168.126,300.629 166.5,304.5C 165.833,303.833 165.167,303.167 164.5,302.5C 163.788,297.638 162.788,292.972 161.5,288.5C 161.5,284.5 161.5,280.5 161.5,276.5C 162.12,270.074 161.453,264.074 159.5,258.5C 159.5,224.5 159.5,190.5 159.5,156.5 Z"/></g>
<g><path style="opacity:1" fill="#59b8de" d="M 197.5,292.5 C 196.523,295.49 195.189,298.157 193.5,300.5C 193.5,297.833 193.5,295.167 193.5,292.5C 194.833,292.5 196.167,292.5 197.5,292.5 Z"/></g>
<g><path style="opacity:1" fill="#9bd6f9" d="M 111.5,294.5 C 112.117,294.611 112.617,294.944 113,295.5C 113.497,297.81 113.663,300.143 113.5,302.5C 111.631,300.365 110.964,297.698 111.5,294.5 Z"/></g>
<g><path style="opacity:1" fill="#42afd7" d="M 193.5,300.5 C 193.66,302.199 193.494,303.866 193,305.5C 191.231,309.377 189.398,313.044 187.5,316.5C 187.31,310.236 189.31,304.903 193.5,300.5 Z"/></g>
<g><path style="opacity:1" fill="#aae0f7" d="M 113.5,311.5 C 115.28,312.99 115.946,314.99 115.5,317.5C 113.926,315.898 113.259,313.898 113.5,311.5 Z"/></g>
<g><path style="opacity:1" fill="#bdedf7" d="M 187.5,322.5 C 186.778,326.506 185.945,330.506 185,334.5C 184.617,335.056 184.117,335.389 183.5,335.5C 183.192,333.076 183.526,330.743 184.5,328.5C 184.964,326.025 185.964,324.025 187.5,322.5 Z"/></g>
<g><path style="opacity:1" fill="#4bb8d6" d="M 121.5,334.5 C 119.5,333.833 118.167,332.5 117.5,330.5C 117.5,329.5 117.5,328.5 117.5,327.5C 118.117,327.389 118.617,327.056 119,326.5C 120.136,329.096 120.969,331.763 121.5,334.5 Z"/></g>
<g><path style="opacity:1" fill="#a4defb" d="M 115.5,322.5 C 117.256,323.552 117.923,325.219 117.5,327.5C 117.5,328.5 117.5,329.5 117.5,330.5C 115.631,328.365 114.964,325.698 115.5,322.5 Z"/></g>
<g><path style="opacity:1" fill="#d4f7fe" d="M 121.5,334.5 C 122.167,334.5 122.833,334.5 123.5,334.5C 125.113,336.956 127.113,338.956 129.5,340.5C 127.199,339.94 124.866,339.44 122.5,339C 121.62,337.644 121.286,336.144 121.5,334.5 Z"/></g>
<g><path style="opacity:1" fill="#3eaed6" d="M 171.5,346.5 C 168.572,347.82 165.239,348.486 161.5,348.5C 153.699,347.785 146.033,346.451 138.5,344.5C 135.901,342.369 132.901,341.036 129.5,340.5C 127.113,338.956 125.113,336.956 123.5,334.5C 125.117,333.962 126.784,333.629 128.5,333.5C 128.33,334.822 128.663,335.989 129.5,337C 131.833,337.333 134.167,337.667 136.5,338C 137.807,340.324 139.807,341.657 142.5,342C 145.5,342.333 148.5,342.667 151.5,343C 152.337,344.011 152.67,345.178 152.5,346.5C 158.839,347.768 165.172,347.768 171.5,346.5 Z"/></g>
<g><path style="opacity:1" fill="#e5fefe" d="M 138.5,344.5 C 146.033,346.451 153.699,347.785 161.5,348.5C 165.239,348.486 168.572,347.82 171.5,346.5C 172.833,346.5 174.167,346.5 175.5,346.5C 177.483,346.843 178.817,346.176 179.5,344.5C 180.167,344.5 180.833,344.5 181.5,344.5C 181.586,345.496 181.252,346.329 180.5,347C 175.561,349.733 170.228,350.9 164.5,350.5C 159.245,349.843 154.079,349.843 149,350.5C 146.656,348.226 143.822,347.059 140.5,347C 139.619,346.292 138.953,345.458 138.5,344.5 Z"/></g>
<g><path style="opacity:1" fill="#a5ddf6" d="M 179.5,344.5 C 178.817,346.176 177.483,346.843 175.5,346.5C 176.183,344.824 177.517,344.157 179.5,344.5 Z"/></g>
</svg>
