<?xml version="1.0" encoding="UTF-8"?>
<!DOCTYPE svg PUBLIC "-//W3C//DTD SVG 1.1//EN" "http://www.w3.org/Graphics/SVG/1.1/DTD/svg11.dtd">
<svg xmlns="http://www.w3.org/2000/svg" version="1.1" width="720px" height="644px" style="shape-rendering:geometricPrecision; text-rendering:geometricPrecision; image-rendering:optimizeQuality; fill-rule:evenodd; clip-rule:evenodd" xmlns:xlink="http://www.w3.org/1999/xlink">
<g><path style="opacity:0.008" fill="#6c60ff" d="M 188.5,25.5 C 190.28,26.9899 190.946,28.9899 190.5,31.5C 190.667,57.8354 190.5,84.1688 190,110.5C 189.722,109.584 189.222,108.918 188.5,108.5C 188.5,80.8333 188.5,53.1667 188.5,25.5 Z"/></g>
<g><path style="opacity:0.995" fill="#03abe5" d="M 215.5,26.5 C 216.167,26.5 216.833,26.5 217.5,26.5C 218.598,27.397 218.598,28.2303 217.5,29C 219.609,31.3695 221.609,33.8695 223.5,36.5C 226.002,37.1913 228.502,36.858 231,35.5C 234.876,37.6081 239.043,38.9414 243.5,39.5C 248.805,42.1543 253.805,45.321 258.5,49C 265.226,48.4539 270.56,50.7872 274.5,56C 277.833,56.3333 281.167,56.6667 284.5,57C 286.199,60.8908 288.532,64.3908 291.5,67.5C 294.53,67.1006 297.53,67.6006 300.5,69C 302.017,70.6851 303.684,72.1851 305.5,73.5C 305.992,78.1973 306.992,82.6973 308.5,87C 306.303,91.3734 304.47,95.8734 303,100.5C 302.501,105.489 302.334,110.489 302.5,115.5C 301.5,115.5 300.5,115.5 299.5,115.5C 299.5,119.167 299.5,122.833 299.5,126.5C 298.105,130.325 296.939,134.325 296,138.5C 295.667,143.5 295.333,148.5 295,153.5C 293.097,157.307 291.764,161.307 291,165.5C 289.734,174.86 289.567,184.194 290.5,193.5C 288.962,205.025 287.295,216.525 285.5,228C 284.25,317.124 284.25,406.291 285.5,495.5C 286.859,496.624 287.859,497.958 288.5,499.5C 288.334,505.842 288.5,512.175 289,518.5C 289.154,522.098 290.154,525.431 292,528.5C 292.5,536.159 292.666,543.826 292.5,551.5C 294.833,551.5 297.167,551.5 299.5,551.5C 299.119,549.058 299.786,548.391 301.5,549.5C 303.102,548.399 304.102,546.899 304.5,545C 303.294,539.828 303.294,534.662 304.5,529.5C 305.167,529.833 305.833,530.167 306.5,530.5C 307.489,526.893 307.823,523.226 307.5,519.5C 308.5,519.5 309.5,519.5 310.5,519.5C 312.411,519.426 313.578,518.426 314,516.5C 314.333,511.833 314.667,507.167 315,502.5C 320.696,498.778 323.363,493.445 323,486.5C 325.492,482.76 327.492,478.76 329,474.5C 330.154,473.257 331.488,472.257 333,471.5C 333.333,467.167 333.667,462.833 334,458.5C 335.537,455.194 337.704,454.694 340.5,457C 339.647,459.809 340.647,461.975 343.5,463.5C 346.729,462.125 347.896,459.792 347,456.5C 344.947,454.236 342.781,452.07 340.5,450C 340.833,449.667 341.167,449.333 341.5,449C 340.449,446.631 339.782,444.131 339.5,441.5C 344.699,432.363 348.533,422.696 351,412.5C 356.673,405.835 358.84,398.335 357.5,390C 360.99,387.509 364.157,384.675 367,381.5C 368.226,375.145 369.559,368.812 371,362.5C 373.248,360.184 375.581,357.85 378,355.5C 379.32,348.081 380.487,340.748 381.5,333.5C 382.833,333.5 384.167,333.5 385.5,333.5C 388.299,327.901 391.133,322.235 394,316.5C 393.516,311.315 395.516,307.648 400,305.5C 401.306,301.554 403.139,297.888 405.5,294.5C 406.297,291.18 406.964,287.846 407.5,284.5C 410.998,285.045 413.998,284.212 416.5,282C 415.672,281.085 414.672,280.419 413.5,280C 413.833,279.667 414.167,279.333 414.5,279C 410.007,274.496 410.507,270.996 416,268.5C 416.465,269.931 417.299,271.097 418.5,272C 417.465,273.507 417.632,275.007 419,276.5C 421.705,278.707 423.871,281.374 425.5,284.5C 426.325,285.386 427.325,285.719 428.5,285.5C 428.662,283.473 428.495,281.473 428,279.5C 425.626,276.115 423.793,272.448 422.5,268.5C 423.246,267.264 423.579,265.93 423.5,264.5C 419.646,264.117 418.313,262.117 419.5,258.5C 420.991,257.756 422.491,257.09 424,256.5C 424.273,254.899 424.773,253.399 425.5,252C 427.543,251.07 429.376,250.57 431,250.5C 432.651,248.246 432.818,245.912 431.5,243.5C 432.806,242.088 433.64,240.421 434,238.5C 435.011,237.663 436.178,237.33 437.5,237.5C 437.351,236.448 437.517,235.448 438,234.5C 440.061,231.523 442.228,228.689 444.5,226C 443.886,224.463 443.886,223.13 444.5,222C 440.888,220.92 439.888,218.753 441.5,215.5C 443.102,216.55 443.935,215.883 444,213.5C 446.238,215.604 447.238,217.938 447,220.5C 449.263,221.589 451.096,220.922 452.5,218.5C 451.253,216.958 451.253,215.458 452.5,214C 450.626,210.32 448.959,206.486 447.5,202.5C 448.473,200.36 449.973,198.693 452,197.5C 454.58,192.629 457.08,187.629 459.5,182.5C 460.672,182.081 461.672,181.415 462.5,180.5C 464.449,175.99 465.782,171.323 466.5,166.5C 467.301,164.958 467.634,163.292 467.5,161.5C 469.38,161.771 470.713,161.104 471.5,159.5C 474.684,156.07 478.684,153.904 483.5,153C 479.898,144.227 482.898,138.893 492.5,137C 491.707,135.915 491.04,134.748 490.5,133.5C 495.691,130.07 499.191,125.404 501,119.5C 502.78,118.406 504.614,117.406 506.5,116.5C 505.391,114.786 506.058,114.119 508.5,114.5C 508.756,112.088 507.756,110.421 505.5,109.5C 508.319,105.032 510.652,100.365 512.5,95.5C 513.873,95.6567 515.207,95.49 516.5,95C 515.826,93.2494 515.493,91.5827 515.5,90C 517.527,88.1207 519.86,86.954 522.5,86.5C 522.87,82.7674 523.537,79.1007 524.5,75.5C 525.835,71.5053 528.169,68.1719 531.5,65.5C 535.436,66.725 538.603,69.0583 541,72.5C 541.915,71.6721 542.581,70.6721 543,69.5C 543.078,67.3435 543.245,65.3435 543.5,63.5C 541.833,62.3333 540.167,61.1667 538.5,60C 542.1,56.3659 546.433,54.0326 551.5,53C 554.561,47.1095 559.561,44.2761 566.5,44.5C 573.63,46.0963 574.13,48.763 568,52.5C 566.041,54.9434 566.708,56.6101 570,57.5C 571.684,55.6487 573.517,53.982 575.5,52.5C 575.023,51.5224 574.357,50.6891 573.5,50C 581.066,47.0439 586.399,49.2106 589.5,56.5C 592.613,57.254 595.613,57.5874 598.5,57.5C 600.815,62.9813 604.648,66.9813 610,69.5C 611.341,72.022 612.174,74.6887 612.5,77.5C 614.942,77.3537 615.609,78.187 614.5,80C 615.833,80.3333 617.167,80.6667 618.5,81C 619.451,81.7175 619.617,82.5509 619,83.5C 615.316,88.1755 610.483,90.6755 604.5,91C 601.977,93.7489 600.311,96.9156 599.5,100.5C 591.239,100.325 586.572,103.992 585.5,111.5C 583.073,111.523 580.74,112.023 578.5,113C 576.833,116 574.5,118.333 571.5,120C 570.551,120.617 569.718,120.451 569,119.5C 567.242,120.469 566.742,121.636 567.5,123C 566.809,124.067 566.309,125.234 566,126.5C 563.207,129.869 559.874,132.536 556,134.5C 555.691,135.766 555.191,136.933 554.5,138C 554.833,138.333 555.167,138.667 555.5,139C 552.978,139.957 550.811,141.457 549,143.5C 544.894,147.948 541.561,152.948 539,158.5C 538.667,157.833 538.333,157.167 538,156.5C 536.778,158.696 534.944,160.196 532.5,161C 534.973,162.742 534.973,164.575 532.5,166.5C 532.608,167.442 532.941,168.275 533.5,169C 531.323,170.202 528.989,170.702 526.5,170.5C 526.703,168.61 526.037,167.11 524.5,166C 526.811,163.172 527.811,160.172 527.5,157C 525.667,156.5 524.5,155.333 524,153.5C 523.333,154.833 522.667,154.833 522,153.5C 521.421,157.64 520.588,161.973 519.5,166.5C 517.085,167.919 516.919,169.585 519,171.5C 519.308,170.692 519.808,170.025 520.5,169.5C 521.425,170.641 522.259,170.641 523,169.5C 524.487,170.253 524.654,171.086 523.5,172C 525.797,173.16 525.464,174.16 522.5,175C 524.161,178.15 523.161,179.65 519.5,179.5C 518.687,183.986 517.187,188.653 515,193.5C 514.667,193.167 514.333,192.833 514,192.5C 512.129,196.445 509.462,199.778 506,202.5C 505.246,205.799 503.579,208.466 501,210.5C 501.437,214.443 499.771,216.776 496,217.5C 495.667,217.167 495.333,216.833 495,216.5C 494.118,219.789 493.452,223.123 493,226.5C 492,227.5 491,228.5 490,229.5C 488.961,233.472 487.461,237.139 485.5,240.5C 484.025,244 483.025,247.667 482.5,251.5C 481.167,251.5 479.833,251.5 478.5,251.5C 477.108,255.196 475.775,258.863 474.5,262.5C 473.325,262.281 472.325,262.614 471.5,263.5C 470.2,268.274 468.7,272.94 467,277.5C 465.341,278.817 464.174,280.483 463.5,282.5C 462.675,283.386 461.675,283.719 460.5,283.5C 460.5,284.833 460.5,286.167 460.5,287.5C 459.5,287.5 458.5,287.5 457.5,287.5C 457.249,291.179 456.082,294.513 454,297.5C 453.503,299.81 453.337,302.143 453.5,304.5C 452.5,304.5 451.5,304.5 450.5,304.5C 450.318,308.724 448.985,312.391 446.5,315.5C 445.167,315.5 443.833,315.5 442.5,315.5C 442.5,317.833 442.5,320.167 442.5,322.5C 441.5,322.5 440.5,322.5 439.5,322.5C 439.5,325.167 439.5,327.833 439.5,330.5C 438.325,330.281 437.325,330.614 436.5,331.5C 435.652,333.409 435.318,335.409 435.5,337.5C 434.5,337.5 433.5,337.5 432.5,337.5C 433.285,341.64 432.119,344.973 429,347.5C 428.008,351.286 426.841,354.953 425.5,358.5C 424.167,358.5 422.833,358.5 421.5,358.5C 421.768,360.099 421.434,361.432 420.5,362.5C 419.115,363.614 417.615,364.614 416,365.5C 415.657,368.193 414.324,370.193 412,371.5C 411.309,375.881 409.309,379.548 406,382.5C 403.879,386.842 401.879,391.175 400,395.5C 398.857,398.777 398.023,402.11 397.5,405.5C 394.869,405.966 392.702,406.633 391,407.5C 390.824,410.882 390.324,414.215 389.5,417.5C 387.883,420.28 386.716,423.28 386,426.5C 383.834,428.121 381.334,428.955 378.5,429C 379.876,431.543 381.043,431.709 382,429.5C 382.374,430.416 382.874,431.25 383.5,432C 381.408,432.953 381.075,434.286 382.5,436C 378.79,441.934 376.624,448.434 376,455.5C 374.421,457.041 372.587,458.208 370.5,459C 370.833,459.333 371.167,459.667 371.5,460C 370.712,463.076 370.212,466.242 370,469.5C 368.903,472.265 366.903,473.931 364,474.5C 363.007,478.442 362.34,482.442 362,486.5C 357.32,488.352 353.487,487.185 350.5,483C 351.763,481.295 352.097,479.628 351.5,478C 353.825,475.645 355.158,473.145 355.5,470.5C 354.758,469.713 353.925,469.047 353,468.5C 351.133,470.808 350.133,473.475 350,476.5C 348.5,478.667 347,480.833 345.5,483C 346.944,484.126 347.61,485.626 347.5,487.5C 346.922,490.488 345.922,493.322 344.5,496C 345.689,498.524 345.356,501.024 343.5,503.5C 342.808,502.975 342.308,502.308 342,501.5C 342.227,503.574 342.061,505.574 341.5,507.5C 342.066,508.291 342.899,508.291 344,507.5C 344.945,507.905 345.612,508.572 346,509.5C 346.14,507.479 346.307,505.645 346.5,504C 348.783,501.81 351.449,501.143 354.5,502C 353.257,503.154 352.257,504.488 351.5,506C 353.192,510.004 352.525,513.504 349.5,516.5C 348.188,521.898 346.688,527.231 345,532.5C 343.936,534.269 342.769,535.936 341.5,537.5C 339.95,542.984 338.117,548.317 336,553.5C 335.232,558.846 334.399,564.179 333.5,569.5C 331.549,566.214 329.215,563.214 326.5,560.5C 324.707,563.251 323.041,566.084 321.5,569C 322.459,570.464 323.792,571.297 325.5,571.5C 330.443,569.436 332.443,571.103 331.5,576.5C 328.559,583.029 327.059,590.029 327,597.5C 325.333,598.5 323.667,599.5 322,600.5C 321.667,603.5 321.333,606.5 321,609.5C 315.829,612.113 310.329,613.946 304.5,615C 303.449,616.385 302.116,617.385 300.5,618C 290.512,619.535 281.012,618.035 272,613.5C 265.85,612.377 259.683,611.377 253.5,610.5C 248.147,608.331 242.814,606.165 237.5,604C 236.062,602.431 234.562,600.931 233,599.5C 232.586,599.957 232.086,600.291 231.5,600.5C 227.276,597.803 222.609,596.803 217.5,597.5C 216.515,594.188 215.515,590.854 214.5,587.5C 213.476,586.147 212.143,585.48 210.5,585.5C 210.913,581.817 210.079,578.483 208,575.5C 206.581,557.487 206.081,539.487 206.5,521.5C 205.07,521.421 203.736,521.754 202.5,522.5C 200.197,499.516 197.863,476.516 195.5,453.5C 194.473,452.209 193.473,452.209 192.5,453.5C 192.5,443.167 192.5,432.833 192.5,422.5C 192.5,351.167 192.5,279.833 192.5,208.5C 193.15,208.196 193.817,207.863 194.5,207.5C 195.333,194.179 195.833,180.846 196,167.5C 196.5,119.501 196.667,71.5012 196.5,23.5C 199.833,23.5 203.167,23.5 206.5,23.5C 206.5,24.5 206.5,25.5 206.5,26.5C 209.5,26.5 212.5,26.5 215.5,26.5 Z"/></g>
<g><path style="opacity:0.004" fill="#1a1a1a" d="M 572.5,32.5 C 575.618,32.7675 578.284,33.7675 580.5,35.5C 577.382,35.2325 574.716,34.2325 572.5,32.5 Z"/></g>
<g><path style="opacity:0.984" fill="#43afd3" d="M 217.5,26.5 C 225.844,28.5576 234.178,30.8909 242.5,33.5C 242.5,34.5 242.5,35.5 242.5,36.5C 244.833,36.5 247.167,36.5 249.5,36.5C 249.5,37.5 249.5,38.5 249.5,39.5C 252.167,39.8333 254.833,40.1667 257.5,40.5C 257.5,41.5 257.5,42.5 257.5,43.5C 260.833,43.5 264.167,43.5 267.5,43.5C 267.5,44.5 267.5,45.5 267.5,46.5C 270.559,46.5583 272.892,47.8916 274.5,50.5C 276.743,51.4742 279.076,51.8076 281.5,51.5C 281.5,52.5 281.5,53.5 281.5,54.5C 284.927,56.2007 288.593,57.534 292.5,58.5C 292.5,59.5 292.5,60.5 292.5,61.5C 296.394,62.5764 300.061,63.9097 303.5,65.5C 303.5,66.8333 303.5,68.1667 303.5,69.5C 306.049,69.4411 308.049,70.4411 309.5,72.5C 310.664,79.1418 310.831,85.8085 310,92.5C 309.586,92.9574 309.086,93.2907 308.5,93.5C 307.486,101.013 305.986,108.347 304,115.5C 301.463,118.86 299.963,122.527 299.5,126.5C 299.5,122.833 299.5,119.167 299.5,115.5C 300.5,115.5 301.5,115.5 302.5,115.5C 302.334,110.489 302.501,105.489 303,100.5C 304.47,95.8734 306.303,91.3734 308.5,87C 306.992,82.6973 305.992,78.1973 305.5,73.5C 303.684,72.1851 302.017,70.6851 300.5,69C 297.53,67.6006 294.53,67.1006 291.5,67.5C 288.532,64.3908 286.199,60.8908 284.5,57C 281.167,56.6667 277.833,56.3333 274.5,56C 270.56,50.7872 265.226,48.4539 258.5,49C 253.805,45.321 248.805,42.1543 243.5,39.5C 239.043,38.9414 234.876,37.6081 231,35.5C 228.502,36.858 226.002,37.1913 223.5,36.5C 221.609,33.8695 219.609,31.3695 217.5,29C 218.598,28.2303 218.598,27.397 217.5,26.5 Z"/></g>
<g><path style="opacity:0.004" fill="#dc2a1a" d="M 594.5,42.5 C 596.404,42.7376 597.738,43.7376 598.5,45.5C 596.381,45.5323 595.048,44.5323 594.5,42.5 Z"/></g>
<g><path style="opacity:0.098" fill="#bdf1f5" d="M 195.5,22.5 C 195.819,84.5475 194.819,146.548 192.5,208.5C 191.824,232.736 191.157,257.069 190.5,281.5C 190.167,281.5 189.833,281.5 189.5,281.5C 189.567,262.829 189.9,244.163 190.5,225.5C 190.167,218.5 189.833,211.5 189.5,204.5C 187.787,204.121 186.787,203.121 186.5,201.5C 187.583,201.539 188.583,201.873 189.5,202.5C 190.308,200.577 190.808,198.577 191,196.5C 191.667,169.167 191.667,141.833 191,114.5C 190.667,113.833 190.333,113.167 190,112.5C 189.768,113.737 189.268,114.737 188.5,115.5C 188.5,113.167 188.5,110.833 188.5,108.5C 189.222,108.918 189.722,109.584 190,110.5C 190.5,84.1688 190.667,57.8354 190.5,31.5C 191.165,33.3691 191.831,35.3691 192.5,37.5C 192.833,37.3333 193.167,37.1667 193.5,37C 193.621,33.9108 193.287,30.7442 192.5,27.5C 192.784,25.2406 193.784,23.5739 195.5,22.5 Z"/></g>
<g><path style="opacity:0.004" fill="#e0ffff" d="M 285.5,46.5 C 287.027,46.427 288.027,47.0937 288.5,48.5C 286.973,48.573 285.973,47.9063 285.5,46.5 Z"/></g>
<g><path style="opacity:0.004" fill="#fefffe" d="M 349.5,47.5 C 356.577,48.4353 363.244,50.6019 369.5,54C 374.423,58.7236 378.423,64.0569 381.5,70C 381,70.5 380.5,71 380,71.5C 379.341,78.4069 376.841,84.5735 372.5,90C 370.193,90.7786 368.193,90.2786 366.5,88.5C 361.867,81.2094 357.867,73.5427 354.5,65.5C 352.807,62.9878 350.474,61.4878 347.5,61C 345.839,59.0048 344.172,57.0048 342.5,55C 344.744,52.2615 347.077,49.7615 349.5,47.5 Z"/></g>
<g><path style="opacity:0.027" fill="#b4e5ed" d="M 562.5,31.5 C 562.389,32.1174 562.056,32.6174 561.5,33C 564.224,33.2695 566.891,33.7695 569.5,34.5C 570.425,33.6431 571.092,32.6431 571.5,31.5C 572.167,31.5 572.5,31.8333 572.5,32.5C 574.716,34.2325 577.382,35.2325 580.5,35.5C 585.45,37.3084 590.117,39.6417 594.5,42.5C 595.048,44.5323 596.381,45.5323 598.5,45.5C 603.378,47.7053 607.378,51.0387 610.5,55.5C 610.183,58.5345 611.183,59.5345 613.5,58.5C 614.5,58.8333 615.167,59.5 615.5,60.5C 615.427,62.0269 616.094,63.0269 617.5,63.5C 619.461,65.9635 621.628,68.2968 624,70.5C 625.149,73.3926 625.649,76.3926 625.5,79.5C 624.167,79.5 622.833,79.5 621.5,79.5C 619.176,74.8821 616.842,70.2154 614.5,65.5C 613.167,65.5 611.833,65.5 610.5,65.5C 610.5,64.5 610.5,63.5 610.5,62.5C 607.5,62.8333 606.167,61.5 606.5,58.5C 602.5,57.8333 600.167,55.5 599.5,51.5C 597.194,51.0074 594.861,50.6741 592.5,50.5C 592.5,49.5 592.5,48.5 592.5,47.5C 588.076,45.5918 583.743,43.4251 579.5,41C 571.841,40.5003 564.174,40.3336 556.5,40.5C 556.5,41.5 556.5,42.5 556.5,43.5C 553.019,45.3061 549.353,46.6395 545.5,47.5C 545.5,48.5 545.5,49.5 545.5,50.5C 544.5,50.5 543.5,50.5 542.5,50.5C 542.5,51.8333 542.5,53.1667 542.5,54.5C 541.167,54.5 539.833,54.5 538.5,54.5C 538.5,55.8333 538.5,57.1667 538.5,58.5C 537.5,58.5 536.5,58.5 535.5,58.5C 535.5,59.5 535.5,60.5 535.5,61.5C 534.167,61.5 532.833,61.5 531.5,61.5C 531.5,62.8333 531.5,64.1667 531.5,65.5C 528.169,68.1719 525.835,71.5053 524.5,75.5C 523.292,76.2341 521.959,76.5674 520.5,76.5C 520.719,77.675 520.386,78.675 519.5,79.5C 519.306,77.9299 519.306,76.4299 519.5,75C 518.552,74.5172 517.552,74.3505 516.5,74.5C 521.425,68.0704 526.925,62.0704 533,56.5C 533.333,55.5 533.667,54.5 534,53.5C 539.221,48.2792 544.387,43.1126 549.5,38C 553.323,34.7959 557.656,32.6292 562.5,31.5 Z"/></g>
<g><path style="opacity:0.008" fill="#7273ff" d="M 562.5,31.5 C 565.5,31.5 568.5,31.5 571.5,31.5C 571.092,32.6431 570.425,33.6431 569.5,34.5C 566.891,33.7695 564.224,33.2695 561.5,33C 562.056,32.6174 562.389,32.1174 562.5,31.5 Z"/></g>
<g><path style="opacity:0.004" fill="#b2e035" d="M 610.5,55.5 C 611.833,56.1667 612.833,57.1667 613.5,58.5C 611.183,59.5345 610.183,58.5345 610.5,55.5 Z"/></g>
<g><path style="opacity:0.004" fill="#0000ff" d="M 615.5,60.5 C 616.906,60.9731 617.573,61.9731 617.5,63.5C 616.094,63.0269 615.427,62.0269 615.5,60.5 Z"/></g>
<g><path style="opacity:0.016" fill="#a87c70" d="M 306.5,58.5 C 311.21,60.8783 314.543,64.545 316.5,69.5C 313.247,67.5809 310.581,64.9143 308.5,61.5C 307.284,62.0016 306.117,62.3349 305,62.5C 304.833,62.1667 304.667,61.8333 304.5,61.5C 305.376,60.7492 306.376,60.2492 307.5,60C 306.944,59.6174 306.611,59.1174 306.5,58.5 Z"/></g>
<g><path style="opacity:0.137" fill="#a6ddea" d="M 514.5,78.5 C 514.81,79.7383 515.31,79.7383 516,78.5C 518.178,81.7899 517.511,84.4566 514,86.5C 513.51,87.7932 513.343,89.1266 513.5,90.5C 512.5,90.5 511.5,90.5 510.5,90.5C 508.388,93.7533 507.055,97.4199 506.5,101.5C 505.5,101.5 504.5,101.5 503.5,101.5C 503.778,103.346 503.111,104.68 501.5,105.5C 499.929,104.691 498.262,104.357 496.5,104.5C 501.992,95.6411 507.992,86.9744 514.5,78.5 Z"/></g>
<g><path style="opacity:0.016" fill="#a6ff9d" d="M 312.5,106.5 C 311.08,109.261 310.413,112.261 310.5,115.5C 309.883,115.389 309.383,115.056 309,114.5C 308.333,112.167 308.333,109.833 309,107.5C 310.011,106.663 311.178,106.33 312.5,106.5 Z"/></g>
<g><path style="opacity:0.004" fill="#e93ffe" d="M 594.5,112.5 C 594.158,113.338 593.492,113.672 592.5,113.5C 592.711,111.576 593.377,111.243 594.5,112.5 Z"/></g>
<g><path style="opacity:0.008" fill="#6d5eff" d="M 492.5,111.5 C 492.938,111.435 493.272,111.601 493.5,112C 491.959,113.579 490.792,115.413 490,117.5C 489.31,118.738 488.81,118.738 488.5,117.5C 489.351,115.118 490.684,113.118 492.5,111.5 Z"/></g>
<g><path style="opacity:0.004" fill="#feff00" d="M 310.5,117.5 C 310.5,118.167 310.5,118.833 310.5,119.5C 308.775,119.157 308.275,118.157 309,116.5C 309.383,117.056 309.883,117.389 310.5,117.5 Z"/></g>
<g><path style="opacity:0.298" fill="#30abd6" d="M 516.5,74.5 C 517.552,74.3505 518.552,74.5172 519.5,75C 519.306,76.4299 519.306,77.9299 519.5,79.5C 520.386,78.675 520.719,77.675 520.5,76.5C 521.959,76.5674 523.292,76.2341 524.5,75.5C 523.537,79.1007 522.87,82.7674 522.5,86.5C 519.86,86.954 517.527,88.1207 515.5,90C 515.493,91.5827 515.826,93.2494 516.5,95C 515.207,95.49 513.873,95.6567 512.5,95.5C 510.652,100.365 508.319,105.032 505.5,109.5C 507.756,110.421 508.756,112.088 508.5,114.5C 506.058,114.119 505.391,114.786 506.5,116.5C 504.614,117.406 502.78,118.406 501,119.5C 499.191,125.404 495.691,130.07 490.5,133.5C 491.04,134.748 491.707,135.915 492.5,137C 482.898,138.893 479.898,144.227 483.5,153C 478.684,153.904 474.684,156.07 471.5,159.5C 471.5,157.833 471.5,156.167 471.5,154.5C 472.5,154.5 473.5,154.5 474.5,154.5C 476.591,150.09 477.924,145.423 478.5,140.5C 479.5,140.5 480.5,140.5 481.5,140.5C 481.682,138.409 481.348,136.409 480.5,134.5C 482.045,133.548 483.712,133.215 485.5,133.5C 486.975,130 487.975,126.333 488.5,122.5C 489.5,122.5 490.5,122.5 491.5,122.5C 491.167,119.5 492.5,118.167 495.5,118.5C 495.343,117.127 495.51,115.793 496,114.5C 499.61,112.116 500.276,109.116 498,105.5C 497.667,106.167 497.333,106.833 497,107.5C 496.722,106.584 496.222,105.918 495.5,105.5C 495.5,104.833 495.833,104.5 496.5,104.5C 498.262,104.357 499.929,104.691 501.5,105.5C 503.111,104.68 503.778,103.346 503.5,101.5C 504.5,101.5 505.5,101.5 506.5,101.5C 507.055,97.4199 508.388,93.7533 510.5,90.5C 511.5,90.5 512.5,90.5 513.5,90.5C 513.343,89.1266 513.51,87.7932 514,86.5C 517.511,84.4566 518.178,81.7899 516,78.5C 515.31,79.7383 514.81,79.7383 514.5,78.5C 514.989,77.0048 515.655,75.6715 516.5,74.5 Z"/></g>
<g><path style="opacity:0.361" fill="#48afd5" d="M 625.5,79.5 C 625.666,83.5138 625.499,87.5138 625,91.5C 624.167,92.3333 623.333,93.1667 622.5,94C 617.843,95.3358 613.51,97.1692 609.5,99.5C 608.711,99.2172 608.044,98.7172 607.5,98C 609.345,97.8135 611.011,96.9802 612.5,95.5C 611.5,95.1667 610.5,94.8333 609.5,94.5C 606.488,95.9275 603.488,97.2608 600.5,98.5C 600.5,99.5 600.5,100.5 600.5,101.5C 599.167,101.5 597.833,101.5 596.5,101.5C 596.5,102.833 596.5,104.167 596.5,105.5C 595.167,105.5 593.833,105.5 592.5,105.5C 592.5,106.5 592.5,107.5 592.5,108.5C 591.448,108.351 590.448,108.517 589.5,109C 589.167,110 588.833,111 588.5,112C 586.833,112.333 585.167,112.667 583.5,113C 581.747,114.999 580.413,117.165 579.5,119.5C 578.167,119.5 576.833,119.5 575.5,119.5C 575.5,120.833 575.5,122.167 575.5,123.5C 574.5,123.5 573.5,123.5 572.5,123.5C 571.862,125.46 571.862,127.293 572.5,129C 570.754,129.471 569.087,130.138 567.5,131C 565,133.5 562.5,136 560,138.5C 558.331,140.169 557.498,142.169 557.5,144.5C 556.167,144.5 554.833,144.5 553.5,144.5C 553.5,146.5 553.5,148.5 553.5,150.5C 554.5,150.5 555.5,150.5 556.5,150.5C 555.833,151.5 555.167,152.5 554.5,153.5C 552.973,153.427 551.973,154.094 551.5,155.5C 548.636,155.064 546.303,155.897 544.5,158C 545.956,158.423 546.456,159.256 546,160.5C 545.586,160.043 545.086,159.709 544.5,159.5C 543.573,161.113 542.739,162.779 542,164.5C 541.667,164.167 541.333,163.833 541,163.5C 540.535,164.931 539.701,166.097 538.5,167C 541.947,167.243 544.447,165.743 546,162.5C 546.483,163.448 546.649,164.448 546.5,165.5C 544.5,166.833 542.833,168.5 541.5,170.5C 541.167,170.5 540.833,170.5 540.5,170.5C 538.921,168.354 536.921,168.188 534.5,170C 532.781,171.87 531.781,174.037 531.5,176.5C 530.5,176.5 529.5,176.5 528.5,176.5C 527.5,179.167 526.5,181.833 525.5,184.5C 522.754,184.928 521.087,186.594 520.5,189.5C 519.675,190.386 518.675,190.719 517.5,190.5C 517.038,194.303 516.038,197.969 514.5,201.5C 513.5,201.5 512.5,201.5 511.5,201.5C 511.007,203.806 510.674,206.139 510.5,208.5C 509.5,208.5 508.5,208.5 507.5,208.5C 507.5,209.833 507.5,211.167 507.5,212.5C 506.5,212.5 505.5,212.5 504.5,212.5C 504.657,213.873 504.49,215.207 504,216.5C 501.892,218.382 500.559,220.715 500,223.5C 498.017,225.658 495.683,227.325 493,228.5C 491.422,232.413 489.922,236.413 488.5,240.5C 487.5,240.5 486.5,240.5 485.5,240.5C 487.461,237.139 488.961,233.472 490,229.5C 491,228.5 492,227.5 493,226.5C 493.452,223.123 494.118,219.789 495,216.5C 495.333,216.833 495.667,217.167 496,217.5C 499.771,216.776 501.437,214.443 501,210.5C 503.579,208.466 505.246,205.799 506,202.5C 509.462,199.778 512.129,196.445 514,192.5C 514.333,192.833 514.667,193.167 515,193.5C 517.187,188.653 518.687,183.986 519.5,179.5C 523.161,179.65 524.161,178.15 522.5,175C 525.464,174.16 525.797,173.16 523.5,172C 524.654,171.086 524.487,170.253 523,169.5C 522.259,170.641 521.425,170.641 520.5,169.5C 519.808,170.025 519.308,170.692 519,171.5C 516.919,169.585 517.085,167.919 519.5,166.5C 520.588,161.973 521.421,157.64 522,153.5C 522.667,154.833 523.333,154.833 524,153.5C 524.5,155.333 525.667,156.5 527.5,157C 527.811,160.172 526.811,163.172 524.5,166C 526.037,167.11 526.703,168.61 526.5,170.5C 528.989,170.702 531.323,170.202 533.5,169C 532.941,168.275 532.608,167.442 532.5,166.5C 534.973,164.575 534.973,162.742 532.5,161C 534.944,160.196 536.778,158.696 538,156.5C 538.333,157.167 538.667,157.833 539,158.5C 541.561,152.948 544.894,147.948 549,143.5C 550.811,141.457 552.978,139.957 555.5,139C 555.167,138.667 554.833,138.333 554.5,138C 555.191,136.933 555.691,135.766 556,134.5C 559.874,132.536 563.207,129.869 566,126.5C 566.309,125.234 566.809,124.067 567.5,123C 566.742,121.636 567.242,120.469 569,119.5C 569.718,120.451 570.551,120.617 571.5,120C 574.5,118.333 576.833,116 578.5,113C 580.74,112.023 583.073,111.523 585.5,111.5C 586.572,103.992 591.239,100.325 599.5,100.5C 600.311,96.9156 601.977,93.7489 604.5,91C 610.483,90.6755 615.316,88.1755 619,83.5C 619.617,82.5509 619.451,81.7175 618.5,81C 617.167,80.6667 615.833,80.3333 614.5,80C 615.609,78.187 614.942,77.3537 612.5,77.5C 612.174,74.6887 611.341,72.022 610,69.5C 604.648,66.9813 600.815,62.9813 598.5,57.5C 595.613,57.5874 592.613,57.254 589.5,56.5C 586.399,49.2106 581.066,47.0439 573.5,50C 574.357,50.6891 575.023,51.5224 575.5,52.5C 573.517,53.982 571.684,55.6487 570,57.5C 566.708,56.6101 566.041,54.9434 568,52.5C 574.13,48.763 573.63,46.0963 566.5,44.5C 559.561,44.2761 554.561,47.1095 551.5,53C 546.433,54.0326 542.1,56.3659 538.5,60C 540.167,61.1667 541.833,62.3333 543.5,63.5C 543.245,65.3435 543.078,67.3435 543,69.5C 542.581,70.6721 541.915,71.6721 541,72.5C 538.603,69.0583 535.436,66.725 531.5,65.5C 531.5,64.1667 531.5,62.8333 531.5,61.5C 532.833,61.5 534.167,61.5 535.5,61.5C 535.5,60.5 535.5,59.5 535.5,58.5C 536.5,58.5 537.5,58.5 538.5,58.5C 538.5,57.1667 538.5,55.8333 538.5,54.5C 539.833,54.5 541.167,54.5 542.5,54.5C 542.5,53.1667 542.5,51.8333 542.5,50.5C 543.5,50.5 544.5,50.5 545.5,50.5C 545.5,49.5 545.5,48.5 545.5,47.5C 549.353,46.6395 553.019,45.3061 556.5,43.5C 556.5,42.5 556.5,41.5 556.5,40.5C 564.174,40.3336 571.841,40.5003 579.5,41C 583.743,43.4251 588.076,45.5918 592.5,47.5C 592.5,48.5 592.5,49.5 592.5,50.5C 594.861,50.6741 597.194,51.0074 599.5,51.5C 600.167,55.5 602.5,57.8333 606.5,58.5C 606.167,61.5 607.5,62.8333 610.5,62.5C 610.5,63.5 610.5,64.5 610.5,65.5C 611.833,65.5 613.167,65.5 614.5,65.5C 616.842,70.2154 619.176,74.8821 621.5,79.5C 622.833,79.5 624.167,79.5 625.5,79.5 Z"/></g>
<g><path style="opacity:0.174" fill="#c8e5ed" d="M 285.5,46.5 C 285.973,47.9063 286.973,48.573 288.5,48.5C 294.752,51.4275 300.752,54.7608 306.5,58.5C 306.611,59.1174 306.944,59.6174 307.5,60C 306.376,60.2492 305.376,60.7492 304.5,61.5C 304.667,61.8333 304.833,62.1667 305,62.5C 306.117,62.3349 307.284,62.0016 308.5,61.5C 310.581,64.9143 313.247,67.5809 316.5,69.5C 317.564,72.1864 318.564,75.0198 319.5,78C 316.66,87.3897 314.327,96.8897 312.5,106.5C 311.178,106.33 310.011,106.663 309,107.5C 308.333,109.833 308.333,112.167 309,114.5C 309.383,115.056 309.883,115.389 310.5,115.5C 310.5,116.167 310.5,116.833 310.5,117.5C 309.883,117.389 309.383,117.056 309,116.5C 308.275,118.157 308.775,119.157 310.5,119.5C 308.758,122.145 308.091,125.145 308.5,128.5C 307.883,128.611 307.383,128.944 307,129.5C 305.846,133.104 305.013,136.771 304.5,140.5C 304.328,141.492 304.662,142.158 305.5,142.5C 304.673,146.439 304.006,150.439 303.5,154.5C 302.593,156.657 301.927,158.99 301.5,161.5C 301.541,171.224 300.874,180.891 299.5,190.5C 298.596,192.638 297.929,194.971 297.5,197.5C 297.747,198.713 298.414,199.38 299.5,199.5C 298.067,201.558 297.4,203.892 297.5,206.5C 295.158,209.771 294.824,213.438 296.5,217.5C 296.217,221.419 295.884,225.085 295.5,228.5C 294.883,228.611 294.383,228.944 294,229.5C 293.242,231.769 293.409,233.936 294.5,236C 292.637,237.418 292.137,239.251 293,241.5C 293.278,240.584 293.778,239.918 294.5,239.5C 293.272,264.16 292.272,288.826 291.5,313.5C 290.837,311.958 290.17,310.291 289.5,308.5C 289.331,309.397 288.998,310.397 288.5,311.5C 287.824,310.398 287.158,309.398 286.5,308.5C 286.5,298.833 286.5,289.167 286.5,279.5C 288.659,254.278 289.826,228.945 290,203.5C 290.219,202.062 290.719,200.729 291.5,199.5C 292.203,189.484 293.037,179.484 294,169.5C 295.163,167.715 295.83,165.715 296,163.5C 296.137,150.999 297.304,138.666 299.5,126.5C 299.963,122.527 301.463,118.86 304,115.5C 305.986,108.347 307.486,101.013 308.5,93.5C 309.086,93.2907 309.586,92.9574 310,92.5C 310.831,85.8085 310.664,79.1418 309.5,72.5C 308.049,70.4411 306.049,69.4411 303.5,69.5C 303.5,68.1667 303.5,66.8333 303.5,65.5C 300.061,63.9097 296.394,62.5764 292.5,61.5C 292.5,60.5 292.5,59.5 292.5,58.5C 288.593,57.534 284.927,56.2007 281.5,54.5C 281.5,53.5 281.5,52.5 281.5,51.5C 279.076,51.8076 276.743,51.4742 274.5,50.5C 272.892,47.8916 270.559,46.5583 267.5,46.5C 267.5,45.5 267.5,44.5 267.5,43.5C 264.167,43.5 260.833,43.5 257.5,43.5C 257.5,42.5 257.5,41.5 257.5,40.5C 254.833,40.1667 252.167,39.8333 249.5,39.5C 249.5,38.5 249.5,37.5 249.5,36.5C 247.167,36.5 244.833,36.5 242.5,36.5C 242.5,35.5 242.5,34.5 242.5,33.5C 234.178,30.8909 225.844,28.5576 217.5,26.5C 216.833,26.5 216.167,26.5 215.5,26.5C 213.282,25.9841 211.282,24.9841 209.5,23.5C 204.88,22.5067 200.214,22.1734 195.5,22.5C 193.784,23.5739 192.784,25.2406 192.5,27.5C 193.287,30.7442 193.621,33.9108 193.5,37C 193.167,37.1667 192.833,37.3333 192.5,37.5C 191.831,35.3691 191.165,33.3691 190.5,31.5C 190.946,28.9899 190.28,26.9899 188.5,25.5C 188.081,22.6755 189.081,20.5088 191.5,19C 202.94,17.99 214.273,18.6567 225.5,21C 245.959,28.6455 265.959,37.1455 285.5,46.5 Z"/></g>
<g><path style="opacity:0.004" fill="#30ff28" d="M 574.5,130.5 C 574.715,132.179 574.048,133.179 572.5,133.5C 572.285,131.821 572.952,130.821 574.5,130.5 Z"/></g>
<g><path style="opacity:0.004" fill="#6dff54" d="M 308.5,128.5 C 308.813,132.413 308.147,136.079 306.5,139.5C 305.833,139.833 305.167,140.167 304.5,140.5C 305.013,136.771 305.846,133.104 307,129.5C 307.383,128.944 307.883,128.611 308.5,128.5 Z"/></g>
<g><path style="opacity:0.059" fill="#a3dae4" d="M 609.5,99.5 C 604.228,103.433 599.228,107.767 594.5,112.5C 593.377,111.243 592.711,111.576 592.5,113.5C 591.104,115.762 589.437,117.929 587.5,120C 582.849,123.175 578.516,126.675 574.5,130.5C 572.952,130.821 572.285,131.821 572.5,133.5C 572.408,135.848 571.408,137.514 569.5,138.5C 568.652,137.375 567.652,137.375 566.5,138.5C 564.745,141.485 562.412,143.985 559.5,146C 560.056,146.383 560.389,146.883 560.5,147.5C 560.5,148.167 560.5,148.833 560.5,149.5C 558.625,147.922 557.292,148.255 556.5,150.5C 555.5,150.5 554.5,150.5 553.5,150.5C 553.5,148.5 553.5,146.5 553.5,144.5C 554.833,144.5 556.167,144.5 557.5,144.5C 557.498,142.169 558.331,140.169 560,138.5C 562.5,136 565,133.5 567.5,131C 569.087,130.138 570.754,129.471 572.5,129C 571.862,127.293 571.862,125.46 572.5,123.5C 573.5,123.5 574.5,123.5 575.5,123.5C 575.5,122.167 575.5,120.833 575.5,119.5C 576.833,119.5 578.167,119.5 579.5,119.5C 580.413,117.165 581.747,114.999 583.5,113C 585.167,112.667 586.833,112.333 588.5,112C 588.833,111 589.167,110 589.5,109C 590.448,108.517 591.448,108.351 592.5,108.5C 592.5,107.5 592.5,106.5 592.5,105.5C 593.833,105.5 595.167,105.5 596.5,105.5C 596.5,104.167 596.5,102.833 596.5,101.5C 597.833,101.5 599.167,101.5 600.5,101.5C 600.5,100.5 600.5,99.5 600.5,98.5C 603.488,97.2608 606.488,95.9275 609.5,94.5C 610.5,94.8333 611.5,95.1667 612.5,95.5C 611.011,96.9802 609.345,97.8135 607.5,98C 608.044,98.7172 608.711,99.2172 609.5,99.5 Z"/></g>
<g><path style="opacity:0.004" fill="#000000" d="M 569.5,138.5 C 569.5,139.833 568.833,140.5 567.5,140.5C 566.662,140.158 566.328,139.492 566.5,138.5C 567.652,137.375 568.652,137.375 569.5,138.5 Z"/></g>
<g><path style="opacity:0.004" fill="#fe0000" d="M 306.5,139.5 C 306.737,140.791 306.404,141.791 305.5,142.5C 304.662,142.158 304.328,141.492 304.5,140.5C 305.167,140.167 305.833,139.833 306.5,139.5 Z"/></g>
<g><path style="opacity:0.004" fill="#71ff2d" d="M 566.5,138.5 C 566.328,139.492 566.662,140.158 567.5,140.5C 566.167,143.833 563.833,146.167 560.5,147.5C 560.389,146.883 560.056,146.383 559.5,146C 562.412,143.985 564.745,141.485 566.5,138.5 Z"/></g>
<g><path style="opacity:0.004" fill="#6422ff" d="M 560.5,149.5 C 559.833,151.5 558.5,152.833 556.5,153.5C 555.833,153.5 555.167,153.5 554.5,153.5C 555.167,152.5 555.833,151.5 556.5,150.5C 557.292,148.255 558.625,147.922 560.5,149.5 Z"/></g>
<g><path style="opacity:0.004" fill="#fe0000" d="M 554.5,153.5 C 555.167,153.5 555.833,153.5 556.5,153.5C 555.478,155.855 553.812,157.522 551.5,158.5C 551.5,157.833 551.5,157.167 551.5,156.5C 552.833,155.833 553.833,154.833 554.5,153.5 Z"/></g>
<g><path style="opacity:0.004" fill="#00ff00" d="M 303.5,154.5 C 303.662,156.527 303.495,158.527 303,160.5C 302.617,161.056 302.117,161.389 301.5,161.5C 301.927,158.99 302.593,156.657 303.5,154.5 Z"/></g>
<g><path style="opacity:0.004" fill="#ff40ff" d="M 554.5,153.5 C 553.833,154.833 552.833,155.833 551.5,156.5C 551.5,156.167 551.5,155.833 551.5,155.5C 551.973,154.094 552.973,153.427 554.5,153.5 Z"/></g>
<g><path style="opacity:0.004" fill="#69f6ff" d="M 551.5,156.5 C 551.5,157.167 551.5,157.833 551.5,158.5C 550.833,158.833 550.167,159.167 549.5,159.5C 549.427,157.973 550.094,156.973 551.5,156.5 Z"/></g>
<g><path style="opacity:0.018" fill="#a1dcde" d="M 551.5,155.5 C 551.5,155.833 551.5,156.167 551.5,156.5C 550.094,156.973 549.427,157.973 549.5,159.5C 549.167,160.167 548.833,160.833 548.5,161.5C 547.167,162.167 547.167,162.833 548.5,163.5C 548.011,164.995 547.345,166.329 546.5,167.5C 546.5,166.833 546.5,166.167 546.5,165.5C 546.649,164.448 546.483,163.448 546,162.5C 544.447,165.743 541.947,167.243 538.5,167C 539.701,166.097 540.535,164.931 541,163.5C 541.333,163.833 541.667,164.167 542,164.5C 542.739,162.779 543.573,161.113 544.5,159.5C 545.086,159.709 545.586,160.043 546,160.5C 546.456,159.256 545.956,158.423 544.5,158C 546.303,155.897 548.636,155.064 551.5,155.5 Z"/></g>
<g><path style="opacity:0.004" fill="#000000" d="M 551.5,158.5 C 551.843,160.483 551.176,161.817 549.5,162.5C 549.5,161.833 549.167,161.5 548.5,161.5C 548.833,160.833 549.167,160.167 549.5,159.5C 550.167,159.167 550.833,158.833 551.5,158.5 Z"/></g>
<g><path style="opacity:0.004" fill="#00ff00" d="M 548.5,161.5 C 549.167,161.5 549.5,161.833 549.5,162.5C 549.5,163.167 549.167,163.5 548.5,163.5C 547.167,162.833 547.167,162.167 548.5,161.5 Z"/></g>
<g><path style="opacity:0.004" fill="#fe0000" d="M 546.5,165.5 C 546.5,166.167 546.5,166.833 546.5,167.5C 545.058,168.82 544.392,170.486 544.5,172.5C 543.833,172.5 543.167,172.5 542.5,172.5C 542.672,171.508 542.338,170.842 541.5,170.5C 542.833,168.5 544.5,166.833 546.5,165.5 Z"/></g>
<g><path style="opacity:0.082" fill="#cdded6" d="M 186.5,201.5 C 186.878,172.815 187.544,144.148 188.5,115.5C 189.268,114.737 189.768,113.737 190,112.5C 190.333,113.167 190.667,113.833 191,114.5C 191.667,141.833 191.667,169.167 191,196.5C 190.808,198.577 190.308,200.577 189.5,202.5C 188.583,201.873 187.583,201.539 186.5,201.5 Z"/></g>
<g><path style="opacity:0.004" fill="#000000" d="M 540.5,170.5 C 540.833,170.5 541.167,170.5 541.5,170.5C 542.338,170.842 542.672,171.508 542.5,172.5C 542.5,173.167 542.5,173.833 542.5,174.5C 541.5,174.5 540.5,174.5 539.5,174.5C 540.234,173.292 540.567,171.959 540.5,170.5 Z"/></g>
<g><path style="opacity:0.004" fill="#00ff00" d="M 542.5,172.5 C 543.167,172.5 543.833,172.5 544.5,172.5C 544.5,173.833 543.833,174.5 542.5,174.5C 542.5,173.833 542.5,173.167 542.5,172.5 Z"/></g>
<g><path style="opacity:0.835" fill="#76c8e6" d="M 195.5,22.5 C 200.214,22.1734 204.88,22.5067 209.5,23.5C 211.282,24.9841 213.282,25.9841 215.5,26.5C 212.5,26.5 209.5,26.5 206.5,26.5C 206.5,25.5 206.5,24.5 206.5,23.5C 203.167,23.5 199.833,23.5 196.5,23.5C 196.667,71.5012 196.5,119.501 196,167.5C 195.833,180.846 195.333,194.179 194.5,207.5C 193.817,207.863 193.15,208.196 192.5,208.5C 194.819,146.548 195.819,84.5475 195.5,22.5 Z"/></g>
<g><path style="opacity:0.004" fill="#000000" d="M 539.5,174.5 C 539.328,175.492 539.662,176.158 540.5,176.5C 539.514,178.408 537.848,179.408 535.5,179.5C 535.062,179.565 534.728,179.399 534.5,179C 536.497,177.807 538.164,176.307 539.5,174.5 Z"/></g>
<g><path style="opacity:0.004" fill="#00ff00" d="M 539.5,174.5 C 540.5,174.5 541.5,174.5 542.5,174.5C 542.5,175.833 541.833,176.5 540.5,176.5C 539.662,176.158 539.328,175.492 539.5,174.5 Z"/></g>
<g><path style="opacity:0.004" fill="#fe0000" d="M 531.5,183.5 C 531.768,185.099 531.434,186.432 530.5,187.5C 530.672,186.508 530.338,185.842 529.5,185.5C 529.833,184.5 530.5,183.833 531.5,183.5 Z"/></g>
<g><path style="opacity:0.169" fill="#a8ddea" d="M 495.5,105.5 C 496.222,105.918 496.722,106.584 497,107.5C 497.333,106.833 497.667,106.167 498,105.5C 500.276,109.116 499.61,112.116 496,114.5C 495.51,115.793 495.343,117.127 495.5,118.5C 492.5,118.167 491.167,119.5 491.5,122.5C 490.5,122.5 489.5,122.5 488.5,122.5C 487.975,126.333 486.975,130 485.5,133.5C 483.712,133.215 482.045,133.548 480.5,134.5C 481.348,136.409 481.682,138.409 481.5,140.5C 480.5,140.5 479.5,140.5 478.5,140.5C 477.924,145.423 476.591,150.09 474.5,154.5C 473.5,154.5 472.5,154.5 471.5,154.5C 471.5,156.167 471.5,157.833 471.5,159.5C 470.713,161.104 469.38,161.771 467.5,161.5C 467.634,163.292 467.301,164.958 466.5,166.5C 465.624,166.369 464.957,166.702 464.5,167.5C 463.288,171.377 461.621,175.044 459.5,178.5C 458.675,179.386 457.675,179.719 456.5,179.5C 456.66,181.199 456.494,182.866 456,184.5C 453.655,188.904 451.322,193.238 449,197.5C 446.245,199.01 445.079,201.343 445.5,204.5C 444.5,204.5 443.5,204.5 442.5,204.5C 440.874,209.42 439.541,214.42 438.5,219.5C 437.5,219.5 436.5,219.5 435.5,219.5C 435.5,221.833 435.5,224.167 435.5,226.5C 434.167,226.5 432.833,226.5 431.5,226.5C 431.565,229.486 430.398,231.82 428,233.5C 427.503,235.81 427.337,238.143 427.5,240.5C 426.5,240.5 425.5,240.5 424.5,240.5C 424.326,242.861 423.993,245.194 423.5,247.5C 422.5,247.5 421.5,247.5 420.5,247.5C 420.5,249.833 420.5,252.167 420.5,254.5C 419.5,254.5 418.5,254.5 417.5,254.5C 417.567,256.401 417.233,258.234 416.5,260C 414.405,263.477 412.238,266.977 410,270.5C 409.505,272.473 409.338,274.473 409.5,276.5C 408.178,276.33 407.011,276.663 406,277.5C 405.505,279.473 405.338,281.473 405.5,283.5C 404.5,283.5 403.5,283.5 402.5,283.5C 401.008,289.367 400.008,295.367 399.5,301.5C 398.022,301.238 396.689,301.571 395.5,302.5C 394.703,304.132 393.703,305.632 392.5,307C 392.082,310.003 390.749,312.503 388.5,314.5C 386.865,319.431 385.532,324.431 384.5,329.5C 383.325,329.281 382.325,329.614 381.5,330.5C 380.295,335.357 378.628,340.024 376.5,344.5C 373.901,348.698 371.568,353.031 369.5,357.5C 366.001,357.741 365.668,356.908 368.5,355C 368.272,354.601 367.938,354.435 367.5,354.5C 383.012,316.827 400.179,279.827 419,243.5C 423.188,232.535 428.355,222.202 434.5,212.5C 434.81,213.738 435.31,213.738 436,212.5C 437.902,210.116 439.069,207.449 439.5,204.5C 442.802,198.447 445.636,192.113 448,185.5C 459.896,165.477 471.229,145.144 482,124.5C 484.4,122.271 486.567,119.937 488.5,117.5C 488.81,118.738 489.31,118.738 490,117.5C 490.792,115.413 491.959,113.579 493.5,112C 493.272,111.601 492.938,111.435 492.5,111.5C 492.615,109.053 493.615,107.053 495.5,105.5 Z"/></g>
<g><path style="opacity:0.004" fill="#000000" d="M 529.5,185.5 C 530.338,185.842 530.672,186.508 530.5,187.5C 530.715,189.179 530.048,190.179 528.5,190.5C 528.366,188.708 528.699,187.042 529.5,185.5 Z"/></g>
<g><path style="opacity:0.004" fill="#fe0000" d="M 299.5,190.5 C 299.5,193.5 299.5,196.5 299.5,199.5C 298.414,199.38 297.747,198.713 297.5,197.5C 297.929,194.971 298.596,192.638 299.5,190.5 Z"/></g>
<g><path style="opacity:0.004" fill="#69f6ff" d="M 524.5,196.5 C 524.167,197.5 523.5,198.167 522.5,198.5C 522.131,196.007 522.797,195.34 524.5,196.5 Z"/></g>
<g><path style="opacity:0.008" fill="#75fea7" d="M 519.5,201.5 C 519.262,204.069 517.929,205.735 515.5,206.5C 514.697,205.577 514.53,204.577 515,203.5C 515.333,203.833 515.667,204.167 516,204.5C 516.075,201.553 517.242,200.553 519.5,201.5 Z"/></g>
<g><path style="opacity:0.008" fill="#a866d4" d="M 439.5,204.5 C 439.069,207.449 437.902,210.116 436,212.5C 435.31,213.738 434.81,213.738 434.5,212.5C 435.379,209.299 437.045,206.632 439.5,204.5 Z"/></g>
<g><path style="opacity:0.004" fill="#8236ff" d="M 515.5,208.5 C 514.527,210.149 513.527,211.816 512.5,213.5C 511.711,213.217 511.044,212.717 510.5,212C 511.846,210.331 513.513,209.164 515.5,208.5 Z"/></g>
<g><path style="opacity:0.012" fill="#c7ff81" d="M 297.5,206.5 C 297.5,210.167 297.5,213.833 297.5,217.5C 297.167,217.5 296.833,217.5 296.5,217.5C 294.824,213.438 295.158,209.771 297.5,206.5 Z"/></g>
<g><path style="opacity:0.004" fill="#fe0000" d="M 505.5,222.5 C 505.843,224.483 505.176,225.817 503.5,226.5C 503.833,225.833 504.167,225.167 504.5,224.5C 504.328,223.508 504.662,222.842 505.5,222.5 Z"/></g>
<g><path style="opacity:0.008" fill="#3a4b34" d="M 296.5,217.5 C 296.833,217.5 297.167,217.5 297.5,217.5C 297.706,221.898 297.373,226.232 296.5,230.5C 295.662,230.158 295.328,229.492 295.5,228.5C 295.884,225.085 296.217,221.419 296.5,217.5 Z"/></g>
<g><path style="opacity:0.008" fill="#e87bff" d="M 504.5,224.5 C 504.167,225.167 503.833,225.833 503.5,226.5C 503.573,228.027 502.906,229.027 501.5,229.5C 500.179,226.765 501.179,225.098 504.5,224.5 Z"/></g>
<g><path style="opacity:0.012" fill="#d189cd" d="M 295.5,228.5 C 295.328,229.492 295.662,230.158 296.5,230.5C 296.785,233.829 296.118,236.829 294.5,239.5C 293.778,239.918 293.278,240.584 293,241.5C 292.137,239.251 292.637,237.418 294.5,236C 293.409,233.936 293.242,231.769 294,229.5C 294.383,228.944 294.883,228.611 295.5,228.5 Z"/></g>
<g><path style="opacity:0.004" fill="#000000" d="M 492.5,247.5 C 491.833,249.5 490.5,250.833 488.5,251.5C 488.833,249.167 490.167,247.833 492.5,247.5 Z"/></g>
<g><path style="opacity:0.612" fill="#33add7" d="M 466.5,166.5 C 465.782,171.323 464.449,175.99 462.5,180.5C 461.672,181.415 460.672,182.081 459.5,182.5C 457.08,187.629 454.58,192.629 452,197.5C 449.973,198.693 448.473,200.36 447.5,202.5C 448.959,206.486 450.626,210.32 452.5,214C 451.253,215.458 451.253,216.958 452.5,218.5C 451.096,220.922 449.263,221.589 447,220.5C 447.238,217.938 446.238,215.604 444,213.5C 443.935,215.883 443.102,216.55 441.5,215.5C 439.888,218.753 440.888,220.92 444.5,222C 443.886,223.13 443.886,224.463 444.5,226C 442.228,228.689 440.061,231.523 438,234.5C 437.517,235.448 437.351,236.448 437.5,237.5C 436.178,237.33 435.011,237.663 434,238.5C 433.64,240.421 432.806,242.088 431.5,243.5C 432.818,245.912 432.651,248.246 431,250.5C 429.376,250.57 427.543,251.07 425.5,252C 424.773,253.399 424.273,254.899 424,256.5C 422.491,257.09 420.991,257.756 419.5,258.5C 418.313,262.117 419.646,264.117 423.5,264.5C 423.579,265.93 423.246,267.264 422.5,268.5C 423.793,272.448 425.626,276.115 428,279.5C 428.495,281.473 428.662,283.473 428.5,285.5C 427.325,285.719 426.325,285.386 425.5,284.5C 423.871,281.374 421.705,278.707 419,276.5C 417.632,275.007 417.465,273.507 418.5,272C 417.299,271.097 416.465,269.931 416,268.5C 410.507,270.996 410.007,274.496 414.5,279C 414.167,279.333 413.833,279.667 413.5,280C 414.672,280.419 415.672,281.085 416.5,282C 413.998,284.212 410.998,285.045 407.5,284.5C 406.964,287.846 406.297,291.18 405.5,294.5C 403.139,297.888 401.306,301.554 400,305.5C 395.516,307.648 393.516,311.315 394,316.5C 391.133,322.235 388.299,327.901 385.5,333.5C 384.167,333.5 382.833,333.5 381.5,333.5C 380.487,340.748 379.32,348.081 378,355.5C 375.581,357.85 373.248,360.184 371,362.5C 369.559,368.812 368.226,375.145 367,381.5C 364.157,384.675 360.99,387.509 357.5,390C 358.84,398.335 356.673,405.835 351,412.5C 348.533,422.696 344.699,432.363 339.5,441.5C 339.782,444.131 340.449,446.631 341.5,449C 341.167,449.333 340.833,449.667 340.5,450C 342.781,452.07 344.947,454.236 347,456.5C 347.896,459.792 346.729,462.125 343.5,463.5C 340.647,461.975 339.647,459.809 340.5,457C 337.704,454.694 335.537,455.194 334,458.5C 333.667,462.833 333.333,467.167 333,471.5C 331.488,472.257 330.154,473.257 329,474.5C 327.492,478.76 325.492,482.76 323,486.5C 323.363,493.445 320.696,498.778 315,502.5C 314.667,507.167 314.333,511.833 314,516.5C 313.578,518.426 312.411,519.426 310.5,519.5C 310.5,515.833 310.5,512.167 310.5,508.5C 311.5,508.5 312.5,508.5 313.5,508.5C 313.46,505.119 313.793,501.786 314.5,498.5C 315.5,498.5 316.5,498.5 317.5,498.5C 317.5,495.833 317.5,493.167 317.5,490.5C 318.5,490.5 319.5,490.5 320.5,490.5C 322.949,479.785 325.616,469.118 328.5,458.5C 329.5,458.5 330.5,458.5 331.5,458.5C 330.799,454.181 331.966,450.514 335,447.5C 336.72,443.018 337.886,438.352 338.5,433.5C 339.833,433.5 341.167,433.5 342.5,433.5C 342.5,432.167 342.5,430.833 342.5,429.5C 342.5,427.167 342.5,424.833 342.5,422.5C 343.5,422.5 344.5,422.5 345.5,422.5C 345.337,420.143 345.503,417.81 346,415.5C 348.064,412.14 349.231,408.474 349.5,404.5C 350.5,404.5 351.5,404.5 352.5,404.5C 352.34,402.801 352.506,401.134 353,399.5C 354.385,398.449 355.385,397.116 356,395.5C 357.239,390.094 358.739,384.761 360.5,379.5C 361.5,379.5 362.5,379.5 363.5,379.5C 362.88,375.698 363.714,372.365 366,369.5C 365.849,365.627 367.016,362.294 369.5,359.5C 368.311,358.571 366.978,358.238 365.5,358.5C 365.229,356.62 365.896,355.287 367.5,354.5C 367.938,354.435 368.272,354.601 368.5,355C 365.668,356.908 366.001,357.741 369.5,357.5C 371.568,353.031 373.901,348.698 376.5,344.5C 378.628,340.024 380.295,335.357 381.5,330.5C 382.325,329.614 383.325,329.281 384.5,329.5C 385.532,324.431 386.865,319.431 388.5,314.5C 390.749,312.503 392.082,310.003 392.5,307C 393.703,305.632 394.703,304.132 395.5,302.5C 396.689,301.571 398.022,301.238 399.5,301.5C 400.008,295.367 401.008,289.367 402.5,283.5C 403.5,283.5 404.5,283.5 405.5,283.5C 405.338,281.473 405.505,279.473 406,277.5C 407.011,276.663 408.178,276.33 409.5,276.5C 409.338,274.473 409.505,272.473 410,270.5C 412.238,266.977 414.405,263.477 416.5,260C 417.233,258.234 417.567,256.401 417.5,254.5C 418.5,254.5 419.5,254.5 420.5,254.5C 420.5,252.167 420.5,249.833 420.5,247.5C 421.5,247.5 422.5,247.5 423.5,247.5C 423.993,245.194 424.326,242.861 424.5,240.5C 425.5,240.5 426.5,240.5 427.5,240.5C 427.337,238.143 427.503,235.81 428,233.5C 430.398,231.82 431.565,229.486 431.5,226.5C 432.833,226.5 434.167,226.5 435.5,226.5C 435.5,224.167 435.5,221.833 435.5,219.5C 436.5,219.5 437.5,219.5 438.5,219.5C 439.541,214.42 440.874,209.42 442.5,204.5C 443.5,204.5 444.5,204.5 445.5,204.5C 445.079,201.343 446.245,199.01 449,197.5C 451.322,193.238 453.655,188.904 456,184.5C 456.494,182.866 456.66,181.199 456.5,179.5C 457.675,179.719 458.675,179.386 459.5,178.5C 461.621,175.044 463.288,171.377 464.5,167.5C 464.957,166.702 465.624,166.369 466.5,166.5 Z"/></g>
<g><path style="opacity:0.004" fill="#2aff23" d="M 487.5,254.5 C 487.5,255.833 487.5,257.167 487.5,258.5C 483.874,256.926 483.874,255.593 487.5,254.5 Z"/></g>
<g><path style="opacity:0.004" fill="#feff00" d="M 485.5,260.5 C 485.5,261.167 485.5,261.833 485.5,262.5C 484.833,262.5 484.167,262.5 483.5,262.5C 483.131,260.007 483.797,259.34 485.5,260.5 Z"/></g>
<g><path style="opacity:0.004" fill="#fff436" d="M 483.5,262.5 C 484.167,262.5 484.833,262.5 485.5,262.5C 485.5,263.5 485.5,264.5 485.5,265.5C 484.167,265.5 483.5,266.167 483.5,267.5C 483.672,268.492 483.338,269.158 482.5,269.5C 481.766,268.292 481.433,266.959 481.5,265.5C 482.167,264.5 482.833,263.5 483.5,262.5 Z"/></g>
<g><path style="opacity:0.004" fill="#000000" d="M 481.5,265.5 C 481.433,266.959 481.766,268.292 482.5,269.5C 481.533,270.806 480.199,271.473 478.5,271.5C 478.5,270.833 478.5,270.167 478.5,269.5C 479.512,268.128 480.512,266.795 481.5,265.5 Z"/></g>
<g><path style="opacity:0.004" fill="#000000" d="M 485.5,265.5 C 485.5,266.833 484.833,267.5 483.5,267.5C 483.5,266.167 484.167,265.5 485.5,265.5 Z"/></g>
<g><path style="opacity:0.004" fill="#fe0000" d="M 478.5,269.5 C 478.5,270.167 478.5,270.833 478.5,271.5C 478.158,272.338 477.492,272.672 476.5,272.5C 476.427,270.973 477.094,269.973 478.5,269.5 Z"/></g>
<g><path style="opacity:0.004" fill="#53f646" d="M 476.5,274.5 C 475.454,276.736 474.121,278.736 472.5,280.5C 469.903,280.279 469.903,279.779 472.5,279C 471.704,276.681 472.204,274.514 474,272.5C 474.708,273.381 475.542,274.047 476.5,274.5 Z"/></g>
<g><path style="opacity:0.008" fill="#ff6751" d="M 471.5,281.5 C 471.401,284.639 470.068,286.973 467.5,288.5C 468.363,287.06 468.363,285.726 467.5,284.5C 469.007,283.611 470.34,282.611 471.5,281.5 Z"/></g>
<g><path style="opacity:0.004" fill="#0000ff" d="M 465.5,292.5 C 465.5,293.167 465.5,293.833 465.5,294.5C 463.24,293.762 463.073,292.762 465,291.5C 465.399,291.728 465.565,292.062 465.5,292.5 Z"/></g>
<g><path style="opacity:0.004" fill="#fe0000" d="M 460.5,301.5 C 460.737,302.791 460.404,303.791 459.5,304.5C 459.062,304.565 458.728,304.399 458.5,304C 459.066,303.005 459.733,302.172 460.5,301.5 Z"/></g>
<g><path style="opacity:0.012" fill="#707070" d="M 462.5,297.5 C 462.843,299.483 462.176,300.817 460.5,301.5C 459.733,302.172 459.066,303.005 458.5,304C 458.728,304.399 459.062,304.565 459.5,304.5C 458.65,306.603 457.65,308.603 456.5,310.5C 455.833,310.5 455.5,310.167 455.5,309.5C 455.984,304.343 458.317,300.343 462.5,297.5 Z"/></g>
<g><path style="opacity:0.004" fill="#37ff2f" d="M 455.5,309.5 C 455.5,310.167 455.833,310.5 456.5,310.5C 456.5,312.5 455.5,313.5 453.5,313.5C 452.571,311.678 453.238,310.345 455.5,309.5 Z"/></g>
<g><path style="opacity:0.008" fill="#7dff74" d="M 453.5,313.5 C 453.5,314.167 453.5,314.833 453.5,315.5C 450.971,316.543 450.138,315.543 451,312.5C 451.671,313.252 452.504,313.586 453.5,313.5 Z"/></g>
<g><path style="opacity:0.004" fill="#fe0000" d="M 451.5,317.5 C 451.923,319.781 451.256,321.448 449.5,322.5C 449.12,320.302 449.787,318.635 451.5,317.5 Z"/></g>
<g><path style="opacity:0.004" fill="#fe0000" d="M 446.5,328.5 C 446.715,330.179 446.048,331.179 444.5,331.5C 444.626,329.378 445.293,328.378 446.5,328.5 Z"/></g>
<g><path style="opacity:0.774" fill="#41afd5" d="M 299.5,126.5 C 297.304,138.666 296.137,150.999 296,163.5C 295.83,165.715 295.163,167.715 294,169.5C 293.037,179.484 292.203,189.484 291.5,199.5C 290.719,200.729 290.219,202.062 290,203.5C 289.826,228.945 288.659,254.278 286.5,279.5C 285.335,346.332 285.168,413.332 286,480.5C 286.326,486.926 287.159,493.26 288.5,499.5C 287.859,497.958 286.859,496.624 285.5,495.5C 284.25,406.291 284.25,317.124 285.5,228C 287.295,216.525 288.962,205.025 290.5,193.5C 289.567,184.194 289.734,174.86 291,165.5C 291.764,161.307 293.097,157.307 295,153.5C 295.333,148.5 295.667,143.5 296,138.5C 296.939,134.325 298.105,130.325 299.5,126.5 Z"/></g>
<g><path style="opacity:0.004" fill="#4331ff" d="M 438.5,342.5 C 438.672,343.492 438.338,344.158 437.5,344.5C 435.969,343.075 436.302,342.409 438.5,342.5 Z"/></g>
<g><path style="opacity:0.008" fill="#7e6eff" d="M 437.5,345.5 C 437.573,347.027 436.906,348.027 435.5,348.5C 434.402,347.399 434.235,346.066 435,344.5C 435.671,345.252 436.504,345.586 437.5,345.5 Z"/></g>
<g><path style="opacity:0.008" fill="#71ff6a" d="M 430.5,358.5 C 430.5,359.5 430.5,360.5 430.5,361.5C 429.425,362.562 428.425,362.562 427.5,361.5C 428.025,360.808 428.692,360.308 429.5,360C 428.288,358.893 428.621,358.393 430.5,358.5 Z"/></g>
<g><path style="opacity:0.004" fill="#00ff00" d="M 362.5,365.5 C 362.011,366.995 361.345,368.329 360.5,369.5C 360.157,367.517 360.824,366.183 362.5,365.5 Z"/></g>
<g><path style="opacity:0.176" fill="#b0dce4" d="M 540.5,170.5 C 540.567,171.959 540.234,173.292 539.5,174.5C 538.164,176.307 536.497,177.807 534.5,179C 534.728,179.399 535.062,179.565 535.5,179.5C 534.833,181.5 533.5,182.833 531.5,183.5C 530.5,183.833 529.833,184.5 529.5,185.5C 528.699,187.042 528.366,188.708 528.5,190.5C 527.167,192.5 525.833,194.5 524.5,196.5C 522.797,195.34 522.131,196.007 522.5,198.5C 522.144,200.19 521.144,201.19 519.5,201.5C 517.242,200.553 516.075,201.553 516,204.5C 515.667,204.167 515.333,203.833 515,203.5C 514.53,204.577 514.697,205.577 515.5,206.5C 515.5,207.167 515.5,207.833 515.5,208.5C 513.513,209.164 511.846,210.331 510.5,212C 511.044,212.717 511.711,213.217 512.5,213.5C 511.361,217.453 509.027,220.453 505.5,222.5C 504.662,222.842 504.328,223.508 504.5,224.5C 501.179,225.098 500.179,226.765 501.5,229.5C 498.736,233.748 496.903,238.414 496,243.5C 495.26,245.319 494.093,246.652 492.5,247.5C 490.167,247.833 488.833,249.167 488.5,251.5C 488.737,252.791 488.404,253.791 487.5,254.5C 483.874,255.593 483.874,256.926 487.5,258.5C 487.5,259.833 486.833,260.5 485.5,260.5C 483.797,259.34 483.131,260.007 483.5,262.5C 482.833,263.5 482.167,264.5 481.5,265.5C 480.512,266.795 479.512,268.128 478.5,269.5C 477.094,269.973 476.427,270.973 476.5,272.5C 476.5,273.167 476.5,273.833 476.5,274.5C 475.542,274.047 474.708,273.381 474,272.5C 472.204,274.514 471.704,276.681 472.5,279C 469.903,279.779 469.903,280.279 472.5,280.5C 472.5,281.167 472.167,281.5 471.5,281.5C 470.34,282.611 469.007,283.611 467.5,284.5C 468.363,285.726 468.363,287.06 467.5,288.5C 467.843,290.483 467.176,291.817 465.5,292.5C 465.565,292.062 465.399,291.728 465,291.5C 463.073,292.762 463.24,293.762 465.5,294.5C 465.19,296.144 464.19,297.144 462.5,297.5C 458.317,300.343 455.984,304.343 455.5,309.5C 453.238,310.345 452.571,311.678 453.5,313.5C 452.504,313.586 451.671,313.252 451,312.5C 450.138,315.543 450.971,316.543 453.5,315.5C 453.5,316.833 452.833,317.5 451.5,317.5C 449.787,318.635 449.12,320.302 449.5,322.5C 448.478,324.544 447.478,326.544 446.5,328.5C 445.293,328.378 444.626,329.378 444.5,331.5C 442.832,335.337 440.832,339.003 438.5,342.5C 436.302,342.409 435.969,343.075 437.5,344.5C 437.5,344.833 437.5,345.167 437.5,345.5C 436.504,345.586 435.671,345.252 435,344.5C 434.235,346.066 434.402,347.399 435.5,348.5C 435.141,352.515 433.475,355.848 430.5,358.5C 428.621,358.393 428.288,358.893 429.5,360C 428.692,360.308 428.025,360.808 427.5,361.5C 428.425,362.562 429.425,362.562 430.5,361.5C 425.267,370.292 420.267,379.292 415.5,388.5C 414.094,388.973 413.427,389.973 413.5,391.5C 412.731,395.916 411.064,399.916 408.5,403.5C 406.618,404.221 406.285,405.221 407.5,406.5C 407.113,409.206 406.113,411.539 404.5,413.5C 402.883,414.038 401.216,414.371 399.5,414.5C 400.332,416.999 400.665,419.332 400.5,421.5C 399.752,423.332 398.752,424.999 397.5,426.5C 396.292,427.234 394.959,427.567 393.5,427.5C 394.586,430.195 394.253,432.861 392.5,435.5C 392.97,436.463 393.637,436.463 394.5,435.5C 389.186,447.823 383.852,460.156 378.5,472.5C 376.302,472.409 375.969,473.075 377.5,474.5C 357.497,520.338 341.33,567.672 329,616.5C 327.039,619.135 324.539,620.969 321.5,622C 316.246,623.271 310.913,623.771 305.5,623.5C 306.091,622.849 306.757,622.182 307.5,621.5C 310.447,620.679 313.447,620.179 316.5,620C 317.337,618.989 317.67,617.822 317.5,616.5C 320.059,616.61 322.392,615.944 324.5,614.5C 325.439,610.235 325.772,605.902 325.5,601.5C 326.5,601.5 327.5,601.5 328.5,601.5C 327.873,596.48 328.706,591.813 331,587.5C 331.774,583.853 332.441,580.186 333,576.5C 338.665,570.668 340.831,563.668 339.5,555.5C 340.822,555.67 341.989,555.337 343,554.5C 343.333,550.833 343.667,547.167 344,543.5C 345.905,541.576 347.072,539.243 347.5,536.5C 348.325,535.614 349.325,535.281 350.5,535.5C 350.5,532.5 350.5,529.5 350.5,526.5C 351.5,526.5 352.5,526.5 353.5,526.5C 353.335,523.15 353.502,519.817 354,516.5C 355.011,515.663 356.178,515.33 357.5,515.5C 357.5,512.167 357.5,508.833 357.5,505.5C 358.5,505.5 359.5,505.5 360.5,505.5C 360.5,501.833 360.5,498.167 360.5,494.5C 361.833,494.5 363.167,494.5 364.5,494.5C 364.5,492.167 364.5,489.833 364.5,487.5C 365.5,487.5 366.5,487.5 367.5,487.5C 367.5,483.833 367.5,480.167 367.5,476.5C 368.833,476.5 370.167,476.5 371.5,476.5C 372.43,472.414 373.597,468.414 375,464.5C 375.71,463.027 376.876,462.36 378.5,462.5C 380.046,456.268 382.212,450.268 385,444.5C 385.497,442.19 385.663,439.857 385.5,437.5C 386.833,437.5 388.167,437.5 389.5,437.5C 389.5,435.167 389.5,432.833 389.5,430.5C 390.5,430.5 391.5,430.5 392.5,430.5C 393.339,423.491 395.839,417.158 400,411.5C 400.495,409.527 400.662,407.527 400.5,405.5C 401.5,405.5 402.5,405.5 403.5,405.5C 403.586,401.491 404.752,397.824 407,394.5C 407.497,392.19 407.663,389.857 407.5,387.5C 408.822,387.67 409.989,387.337 411,386.5C 411.129,383.997 412.129,381.997 414,380.5C 413.988,377.349 414.988,374.682 417,372.5C 417.497,370.19 417.663,367.857 417.5,365.5C 418.5,365.5 419.5,365.5 420.5,365.5C 420.5,364.5 420.5,363.5 420.5,362.5C 421.434,361.432 421.768,360.099 421.5,358.5C 422.833,358.5 424.167,358.5 425.5,358.5C 426.841,354.953 428.008,351.286 429,347.5C 432.119,344.973 433.285,341.64 432.5,337.5C 433.5,337.5 434.5,337.5 435.5,337.5C 435.318,335.409 435.652,333.409 436.5,331.5C 437.325,330.614 438.325,330.281 439.5,330.5C 439.5,327.833 439.5,325.167 439.5,322.5C 440.5,322.5 441.5,322.5 442.5,322.5C 442.5,320.167 442.5,317.833 442.5,315.5C 443.833,315.5 445.167,315.5 446.5,315.5C 448.985,312.391 450.318,308.724 450.5,304.5C 451.5,304.5 452.5,304.5 453.5,304.5C 453.337,302.143 453.503,299.81 454,297.5C 456.082,294.513 457.249,291.179 457.5,287.5C 458.5,287.5 459.5,287.5 460.5,287.5C 460.5,286.167 460.5,284.833 460.5,283.5C 461.675,283.719 462.675,283.386 463.5,282.5C 464.174,280.483 465.341,278.817 467,277.5C 468.7,272.94 470.2,268.274 471.5,263.5C 472.325,262.614 473.325,262.281 474.5,262.5C 475.775,258.863 477.108,255.196 478.5,251.5C 479.833,251.5 481.167,251.5 482.5,251.5C 483.025,247.667 484.025,244 485.5,240.5C 486.5,240.5 487.5,240.5 488.5,240.5C 489.922,236.413 491.422,232.413 493,228.5C 495.683,227.325 498.017,225.658 500,223.5C 500.559,220.715 501.892,218.382 504,216.5C 504.49,215.207 504.657,213.873 504.5,212.5C 505.5,212.5 506.5,212.5 507.5,212.5C 507.5,211.167 507.5,209.833 507.5,208.5C 508.5,208.5 509.5,208.5 510.5,208.5C 510.674,206.139 511.007,203.806 511.5,201.5C 512.5,201.5 513.5,201.5 514.5,201.5C 516.038,197.969 517.038,194.303 517.5,190.5C 518.675,190.719 519.675,190.386 520.5,189.5C 521.087,186.594 522.754,184.928 525.5,184.5C 526.5,181.833 527.5,179.167 528.5,176.5C 529.5,176.5 530.5,176.5 531.5,176.5C 531.781,174.037 532.781,171.87 534.5,170C 536.921,168.188 538.921,168.354 540.5,170.5 Z"/></g>
<g><path style="opacity:0.092" fill="#d6fffe" d="M 286.5,308.5 C 287.158,309.398 287.824,310.398 288.5,311.5C 288.998,310.397 289.331,309.397 289.5,308.5C 290.17,310.291 290.837,311.958 291.5,313.5C 290.517,355.136 290.183,396.803 290.5,438.5C 289.849,437.909 289.182,437.243 288.5,436.5C 287.818,437.243 287.151,437.909 286.5,438.5C 286.5,395.167 286.5,351.833 286.5,308.5 Z"/></g>
<g><path style="opacity:0.004" fill="#4634ff" d="M 357.5,374.5 C 358.434,376.687 357.767,378.354 355.5,379.5C 356.024,377.694 356.691,376.028 357.5,374.5 Z"/></g>
<g><path style="opacity:0.063" fill="#e4f5f5" d="M 186.5,201.5 C 186.787,203.121 187.787,204.121 189.5,204.5C 189.833,211.5 190.167,218.5 190.5,225.5C 189.9,244.163 189.567,262.829 189.5,281.5C 188.826,328.194 188.159,375.027 187.5,422C 188.029,423.559 188.696,425.059 189.5,426.5C 188.348,428.793 187.015,430.793 185.5,432.5C 185.5,430.833 185.5,429.167 185.5,427.5C 186.161,425.866 186.494,424.033 186.5,422C 186.453,419.705 185.787,417.871 184.5,416.5C 184.206,344.66 184.873,272.993 186.5,201.5 Z"/></g>
<g><path style="opacity:0.004" fill="#fefffe" d="M 510.5,383.5 C 518.656,383.492 522.656,387.658 522.5,396C 522.151,401.757 520.818,407.257 518.5,412.5C 513.36,417.973 507.694,418.64 501.5,414.5C 499.822,412.297 498.822,409.797 498.5,407C 498.928,401.907 500.261,397.074 502.5,392.5C 505.554,389.783 508.221,386.783 510.5,383.5 Z"/></g>
<g><path style="opacity:0.004" fill="#39ff31" d="M 415.5,388.5 C 415.573,390.027 414.906,391.027 413.5,391.5C 413.427,389.973 414.094,388.973 415.5,388.5 Z"/></g>
<g><path style="opacity:0.173" fill="#b8e2e6" d="M 365.5,358.5 C 366.978,358.238 368.311,358.571 369.5,359.5C 367.016,362.294 365.849,365.627 366,369.5C 363.714,372.365 362.88,375.698 363.5,379.5C 362.5,379.5 361.5,379.5 360.5,379.5C 358.739,384.761 357.239,390.094 356,395.5C 355.385,397.116 354.385,398.449 353,399.5C 352.506,401.134 352.34,402.801 352.5,404.5C 351.5,404.5 350.5,404.5 349.5,404.5C 349.231,408.474 348.064,412.14 346,415.5C 345.503,417.81 345.337,420.143 345.5,422.5C 344.5,422.5 343.5,422.5 342.5,422.5C 342.5,424.833 342.5,427.167 342.5,429.5C 338.2,429.815 336.533,432.149 337.5,436.5C 336.5,436.5 335.5,436.5 334.5,436.5C 332.771,446.656 329.604,456.322 325,465.5C 324.333,464.167 323.667,464.167 323,465.5C 322.536,464.906 322.369,464.239 322.5,463.5C 333.515,435.373 344.515,407.373 355.5,379.5C 357.767,378.354 358.434,376.687 357.5,374.5C 358.248,372.668 359.248,371.001 360.5,369.5C 361.345,368.329 362.011,366.995 362.5,365.5C 362.182,362.519 363.182,360.185 365.5,358.5 Z"/></g>
<g><path style="opacity:0.008" fill="#fefffe" d="M 589.5,403.5 C 594.252,402.899 597.918,404.566 600.5,408.5C 604.014,421.991 607.847,435.325 612,448.5C 612.832,457.186 612.665,465.853 611.5,474.5C 609.44,485.661 607.44,496.828 605.5,508C 598.571,524.929 587.071,537.763 571,546.5C 561.372,550.517 551.539,554.017 541.5,557C 531.546,561.012 521.879,565.512 512.5,570.5C 509.833,570.833 507.167,571.167 504.5,571.5C 501.3,571.399 498.3,570.732 495.5,569.5C 494.859,567.704 493.859,566.204 492.5,565C 499.622,551.111 506.122,536.945 512,522.5C 514.227,514.874 515.893,507.207 517,499.5C 516.553,489.987 518.386,480.987 522.5,472.5C 528.249,467.227 534.749,466.227 542,469.5C 545.934,468.307 549.767,466.974 553.5,465.5C 559.425,456.415 563.425,446.415 565.5,435.5C 567.869,430.076 571.202,425.409 575.5,421.5C 578.312,417.853 580.479,413.853 582,409.5C 584.156,406.879 586.656,404.879 589.5,403.5 Z"/></g>
<g><path style="opacity:0.008" fill="#685bff" d="M 408.5,403.5 C 408.737,404.791 408.404,405.791 407.5,406.5C 406.285,405.221 406.618,404.221 408.5,403.5 Z"/></g>
<g><path style="opacity:0.744" fill="#77ccec" d="M 192.5,208.5 C 192.5,279.833 192.5,351.167 192.5,422.5C 191.771,401.189 190.771,380.522 189.5,360.5C 190.209,334.171 190.542,307.838 190.5,281.5C 191.157,257.069 191.824,232.736 192.5,208.5 Z"/></g>
<g><path style="opacity:0.035" fill="#c682d3" d="M 404.5,413.5 C 403.533,416.434 402.2,419.1 400.5,421.5C 400.665,419.332 400.332,416.999 399.5,414.5C 401.216,414.371 402.883,414.038 404.5,413.5 Z"/></g>
<g><path style="opacity:0.016" fill="#a0ff97" d="M 184.5,416.5 C 185.787,417.871 186.453,419.705 186.5,422C 186.494,424.033 186.161,425.866 185.5,427.5C 185.276,423.821 184.942,420.154 184.5,416.5 Z"/></g>
<g><path style="opacity:0.035" fill="#bb83ac" d="M 397.5,426.5 C 397.12,429.772 396.12,432.772 394.5,435.5C 393.637,436.463 392.97,436.463 392.5,435.5C 394.253,432.861 394.586,430.195 393.5,427.5C 394.959,427.567 396.292,427.234 397.5,426.5 Z"/></g>
<g><path style="opacity:0.341" fill="#b0dfef" d="M 189.5,281.5 C 189.833,281.5 190.167,281.5 190.5,281.5C 190.542,307.838 190.209,334.171 189.5,360.5C 190.771,380.522 191.771,401.189 192.5,422.5C 192.5,432.833 192.5,443.167 192.5,453.5C 193.758,457.036 194.591,460.703 195,464.5C 195.5,475.161 195.667,485.828 195.5,496.5C 194.768,486.598 193.601,476.598 192,466.5C 191.5,457.506 191.334,448.506 191.5,439.5C 188.642,439.028 186.642,440.028 185.5,442.5C 185.5,439.167 185.5,435.833 185.5,432.5C 187.015,430.793 188.348,428.793 189.5,426.5C 188.696,425.059 188.029,423.559 187.5,422C 188.159,375.027 188.826,328.194 189.5,281.5 Z"/></g>
<g><path style="opacity:0.004" fill="#000000" d="M 185.5,448.5 C 186.38,450.137 187.046,451.97 187.5,454C 187.361,455.301 186.695,456.134 185.5,456.5C 185.5,453.833 185.5,451.167 185.5,448.5 Z"/></g>
<g><path style="opacity:0.012" fill="#69735b" d="M 187.5,461.5 C 188.819,465.163 189.819,468.997 190.5,473C 189.934,473.995 189.267,474.828 188.5,475.5C 187.514,471.03 187.181,466.363 187.5,461.5 Z"/></g>
<g><path style="opacity:0.004" fill="#4331ff" d="M 378.5,472.5 C 378.672,473.492 378.338,474.158 377.5,474.5C 375.969,473.075 376.302,472.409 378.5,472.5 Z"/></g>
<g><path style="opacity:0.004" fill="#3f1408" d="M 188.5,479.5 C 189.434,482.656 190.101,485.989 190.5,489.5C 189.883,489.389 189.383,489.056 189,488.5C 188.502,485.518 188.335,482.518 188.5,479.5 Z"/></g>
<g><path style="opacity:0.004" fill="#4331ff" d="M 190.5,492.5 C 191.391,493.261 192.058,494.261 192.5,495.5C 192.043,496.298 191.376,496.631 190.5,496.5C 190.5,495.167 190.5,493.833 190.5,492.5 Z"/></g>
<g><path style="opacity:0.008" fill="#76ff6e" d="M 191.5,500.5 C 192.586,500.62 193.253,501.287 193.5,502.5C 193.457,503.416 193.124,504.083 192.5,504.5C 191.566,503.432 191.232,502.099 191.5,500.5 Z"/></g>
<g><path style="opacity:0.959" fill="#6cc5e2" d="M 286.5,279.5 C 286.5,289.167 286.5,298.833 286.5,308.5C 286.5,351.833 286.5,395.167 286.5,438.5C 286.333,452.171 286.5,465.837 287,479.5C 287.249,480.624 287.749,481.624 288.5,482.5C 289.332,493.485 289.832,504.485 290,515.5C 291.197,518.089 292.197,520.756 293,523.5C 293.17,529.196 293.67,534.862 294.5,540.5C 296.111,541.32 296.778,542.654 296.5,544.5C 297.5,544.5 298.5,544.5 299.5,544.5C 299.187,541.753 299.52,539.086 300.5,536.5C 301.086,536.709 301.586,537.043 302,537.5C 302.333,533.833 302.667,530.167 303,526.5C 304.333,525.833 305.333,524.833 306,523.5C 306.176,520.118 306.676,516.785 307.5,513.5C 308.086,513.291 308.586,512.957 309,512.5C 309.333,509.167 309.667,505.833 310,502.5C 310.333,502.833 310.667,503.167 311,503.5C 312.823,499.911 313.489,496.244 313,492.5C 313.71,493.973 314.876,494.64 316.5,494.5C 316.5,491.833 316.5,489.167 316.5,486.5C 317.5,486.5 318.5,486.5 319.5,486.5C 320.28,481.19 321.613,476.19 323.5,471.5C 323.333,469.833 323.167,468.167 323,466.5C 322.578,468.426 321.411,469.426 319.5,469.5C 320.514,467.426 321.514,465.426 322.5,463.5C 322.369,464.239 322.536,464.906 323,465.5C 323.667,464.167 324.333,464.167 325,465.5C 329.604,456.322 332.771,446.656 334.5,436.5C 335.5,436.5 336.5,436.5 337.5,436.5C 336.533,432.149 338.2,429.815 342.5,429.5C 342.5,430.833 342.5,432.167 342.5,433.5C 341.167,433.5 339.833,433.5 338.5,433.5C 337.886,438.352 336.72,443.018 335,447.5C 331.966,450.514 330.799,454.181 331.5,458.5C 330.5,458.5 329.5,458.5 328.5,458.5C 325.616,469.118 322.949,479.785 320.5,490.5C 319.5,490.5 318.5,490.5 317.5,490.5C 317.5,493.167 317.5,495.833 317.5,498.5C 316.5,498.5 315.5,498.5 314.5,498.5C 313.793,501.786 313.46,505.119 313.5,508.5C 312.5,508.5 311.5,508.5 310.5,508.5C 310.5,512.167 310.5,515.833 310.5,519.5C 309.5,519.5 308.5,519.5 307.5,519.5C 307.823,523.226 307.489,526.893 306.5,530.5C 305.833,530.167 305.167,529.833 304.5,529.5C 303.294,534.662 303.294,539.828 304.5,545C 304.102,546.899 303.102,548.399 301.5,549.5C 299.786,548.391 299.119,549.058 299.5,551.5C 297.167,551.5 294.833,551.5 292.5,551.5C 292.666,543.826 292.5,536.159 292,528.5C 290.154,525.431 289.154,522.098 289,518.5C 288.5,512.175 288.334,505.842 288.5,499.5C 287.159,493.26 286.326,486.926 286,480.5C 285.168,413.332 285.335,346.332 286.5,279.5 Z"/></g>
<g><path style="opacity:0.314" fill="#c0e7ec" d="M 290.5,438.5 C 291.795,454.803 292.461,471.137 292.5,487.5C 291.285,488.779 291.618,489.779 293.5,490.5C 295.747,500.151 297.08,509.817 297.5,519.5C 297.833,520.5 298.5,521.167 299.5,521.5C 301.602,518.069 303.435,514.402 305,510.5C 305.424,504.558 307.424,499.225 311,494.5C 313.877,486.102 316.71,477.769 319.5,469.5C 321.411,469.426 322.578,468.426 323,466.5C 323.167,468.167 323.333,469.833 323.5,471.5C 321.613,476.19 320.28,481.19 319.5,486.5C 318.5,486.5 317.5,486.5 316.5,486.5C 316.5,489.167 316.5,491.833 316.5,494.5C 314.876,494.64 313.71,493.973 313,492.5C 313.489,496.244 312.823,499.911 311,503.5C 310.667,503.167 310.333,502.833 310,502.5C 309.667,505.833 309.333,509.167 309,512.5C 308.586,512.957 308.086,513.291 307.5,513.5C 306.676,516.785 306.176,520.118 306,523.5C 305.333,524.833 304.333,525.833 303,526.5C 302.667,530.167 302.333,533.833 302,537.5C 301.586,537.043 301.086,536.709 300.5,536.5C 299.52,539.086 299.187,541.753 299.5,544.5C 298.5,544.5 297.5,544.5 296.5,544.5C 296.778,542.654 296.111,541.32 294.5,540.5C 293.67,534.862 293.17,529.196 293,523.5C 292.197,520.756 291.197,518.089 290,515.5C 289.832,504.485 289.332,493.485 288.5,482.5C 287.749,481.624 287.249,480.624 287,479.5C 286.5,465.837 286.333,452.171 286.5,438.5C 287.151,437.909 287.818,437.243 288.5,436.5C 289.182,437.243 289.849,437.909 290.5,438.5 Z"/></g>
<g><path style="opacity:0.141" fill="#c5f0f2" d="M 195.5,496.5 C 197.005,506.541 198.338,516.541 199.5,526.5C 201.385,541.111 203.385,555.777 205.5,570.5C 205.547,573.708 204.547,576.374 202.5,578.5C 201.539,576.735 201.205,574.735 201.5,572.5C 201.073,569.99 200.407,567.657 199.5,565.5C 196.384,545.164 194.05,524.831 192.5,504.5C 193.124,504.083 193.457,503.416 193.5,502.5C 193.253,501.287 192.586,500.62 191.5,500.5C 190.766,499.292 190.433,497.959 190.5,496.5C 191.376,496.631 192.043,496.298 192.5,495.5C 192.058,494.261 191.391,493.261 190.5,492.5C 190.5,491.5 190.5,490.5 190.5,489.5C 190.101,485.989 189.434,482.656 188.5,479.5C 188.5,478.167 188.5,476.833 188.5,475.5C 189.267,474.828 189.934,473.995 190.5,473C 189.819,468.997 188.819,465.163 187.5,461.5C 187.169,459.678 186.502,458.011 185.5,456.5C 186.695,456.134 187.361,455.301 187.5,454C 187.046,451.97 186.38,450.137 185.5,448.5C 185.5,446.5 185.5,444.5 185.5,442.5C 186.642,440.028 188.642,439.028 191.5,439.5C 191.334,448.506 191.5,457.506 192,466.5C 193.601,476.598 194.768,486.598 195.5,496.5 Z"/></g>
<g><path style="opacity:0.004" fill="#00ff00" d="M 199.5,565.5 C 200.407,567.657 201.073,569.99 201.5,572.5C 200.883,572.389 200.383,572.056 200,571.5C 199.505,569.527 199.338,567.527 199.5,565.5 Z"/></g>
<g><path style="opacity:0.012" fill="#8777ff" d="M 203.5,585.5 C 205.28,586.99 205.946,588.99 205.5,591.5C 203.926,589.898 203.259,587.898 203.5,585.5 Z"/></g>
<g><path style="opacity:0.325" fill="#9dd9ed" d="M 199.5,526.5 C 200.496,526.414 201.329,526.748 202,527.5C 202.333,529.5 202.667,531.5 203,533.5C 203.742,548.94 205.076,564.273 207,579.5C 207.333,580.833 207.667,582.167 208,583.5C 208.333,583.167 208.667,582.833 209,582.5C 209.498,585.482 209.665,588.482 209.5,591.5C 210.833,591.5 212.167,591.5 213.5,591.5C 213.565,593.696 214.232,595.696 215.5,597.5C 217.389,598.604 219.055,599.937 220.5,601.5C 222.045,602.452 223.712,602.785 225.5,602.5C 225.281,603.675 225.614,604.675 226.5,605.5C 231.123,607.971 236.123,609.138 241.5,609C 242.337,610.011 242.67,611.178 242.5,612.5C 245.833,612.5 249.167,612.5 252.5,612.5C 252.5,613.5 252.5,614.5 252.5,615.5C 256.167,615.5 259.833,615.5 263.5,615.5C 263.5,616.833 263.5,618.167 263.5,619.5C 269.5,619.5 275.5,619.5 281.5,619.5C 281.5,620.833 281.5,622.167 281.5,623.5C 269.371,624.587 257.704,622.92 246.5,618.5C 245.817,616.824 244.483,616.157 242.5,616.5C 228.647,612.387 216.48,605.387 206,595.5C 205.51,594.207 205.343,592.873 205.5,591.5C 205.946,588.99 205.28,586.99 203.5,585.5C 202.781,583.236 202.448,580.903 202.5,578.5C 204.547,576.374 205.547,573.708 205.5,570.5C 203.385,555.777 201.385,541.111 199.5,526.5 Z"/></g>
<g><path style="opacity:0.008" fill="#6151ff" d="M 242.5,616.5 C 244.483,616.157 245.817,616.824 246.5,618.5C 245.005,618.011 243.671,617.345 242.5,616.5 Z"/></g>
<g><path style="opacity:0.975" fill="#32acd7" d="M 420.5,362.5 C 420.5,363.5 420.5,364.5 420.5,365.5C 419.5,365.5 418.5,365.5 417.5,365.5C 417.663,367.857 417.497,370.19 417,372.5C 414.988,374.682 413.988,377.349 414,380.5C 412.129,381.997 411.129,383.997 411,386.5C 409.989,387.337 408.822,387.67 407.5,387.5C 407.663,389.857 407.497,392.19 407,394.5C 404.752,397.824 403.586,401.491 403.5,405.5C 402.5,405.5 401.5,405.5 400.5,405.5C 400.662,407.527 400.495,409.527 400,411.5C 395.839,417.158 393.339,423.491 392.5,430.5C 391.5,430.5 390.5,430.5 389.5,430.5C 389.5,432.833 389.5,435.167 389.5,437.5C 388.167,437.5 386.833,437.5 385.5,437.5C 385.663,439.857 385.497,442.19 385,444.5C 382.212,450.268 380.046,456.268 378.5,462.5C 376.876,462.36 375.71,463.027 375,464.5C 373.597,468.414 372.43,472.414 371.5,476.5C 370.167,476.5 368.833,476.5 367.5,476.5C 367.5,480.167 367.5,483.833 367.5,487.5C 366.5,487.5 365.5,487.5 364.5,487.5C 364.5,489.833 364.5,492.167 364.5,494.5C 363.167,494.5 361.833,494.5 360.5,494.5C 360.5,498.167 360.5,501.833 360.5,505.5C 359.5,505.5 358.5,505.5 357.5,505.5C 357.5,508.833 357.5,512.167 357.5,515.5C 356.178,515.33 355.011,515.663 354,516.5C 353.502,519.817 353.335,523.15 353.5,526.5C 352.5,526.5 351.5,526.5 350.5,526.5C 350.5,529.5 350.5,532.5 350.5,535.5C 349.325,535.281 348.325,535.614 347.5,536.5C 347.072,539.243 345.905,541.576 344,543.5C 343.667,547.167 343.333,550.833 343,554.5C 341.989,555.337 340.822,555.67 339.5,555.5C 340.831,563.668 338.665,570.668 333,576.5C 332.441,580.186 331.774,583.853 331,587.5C 328.706,591.813 327.873,596.48 328.5,601.5C 327.5,601.5 326.5,601.5 325.5,601.5C 325.772,605.902 325.439,610.235 324.5,614.5C 322.392,615.944 320.059,616.61 317.5,616.5C 317.67,617.822 317.337,618.989 316.5,620C 313.447,620.179 310.447,620.679 307.5,621.5C 306.757,622.182 306.091,622.849 305.5,623.5C 297.5,623.5 289.5,623.5 281.5,623.5C 281.5,622.167 281.5,620.833 281.5,619.5C 275.5,619.5 269.5,619.5 263.5,619.5C 263.5,618.167 263.5,616.833 263.5,615.5C 259.833,615.5 256.167,615.5 252.5,615.5C 252.5,614.5 252.5,613.5 252.5,612.5C 249.167,612.5 245.833,612.5 242.5,612.5C 242.67,611.178 242.337,610.011 241.5,609C 236.123,609.138 231.123,607.971 226.5,605.5C 225.614,604.675 225.281,603.675 225.5,602.5C 223.712,602.785 222.045,602.452 220.5,601.5C 219.055,599.937 217.389,598.604 215.5,597.5C 214.232,595.696 213.565,593.696 213.5,591.5C 212.167,591.5 210.833,591.5 209.5,591.5C 209.665,588.482 209.498,585.482 209,582.5C 208.667,582.833 208.333,583.167 208,583.5C 207.667,582.167 207.333,580.833 207,579.5C 205.076,564.273 203.742,548.94 203,533.5C 202.667,531.5 202.333,529.5 202,527.5C 201.329,526.748 200.496,526.414 199.5,526.5C 198.338,516.541 197.005,506.541 195.5,496.5C 195.667,485.828 195.5,475.161 195,464.5C 194.591,460.703 193.758,457.036 192.5,453.5C 193.473,452.209 194.473,452.209 195.5,453.5C 197.863,476.516 200.197,499.516 202.5,522.5C 203.736,521.754 205.07,521.421 206.5,521.5C 206.081,539.487 206.581,557.487 208,575.5C 210.079,578.483 210.913,581.817 210.5,585.5C 212.143,585.48 213.476,586.147 214.5,587.5C 215.515,590.854 216.515,594.188 217.5,597.5C 222.609,596.803 227.276,597.803 231.5,600.5C 232.086,600.291 232.586,599.957 233,599.5C 234.562,600.931 236.062,602.431 237.5,604C 242.814,606.165 248.147,608.331 253.5,610.5C 259.683,611.377 265.85,612.377 272,613.5C 281.012,618.035 290.512,619.535 300.5,618C 302.116,617.385 303.449,616.385 304.5,615C 310.329,613.946 315.829,612.113 321,609.5C 321.333,606.5 321.667,603.5 322,600.5C 323.667,599.5 325.333,598.5 327,597.5C 327.059,590.029 328.559,583.029 331.5,576.5C 332.443,571.103 330.443,569.436 325.5,571.5C 323.792,571.297 322.459,570.464 321.5,569C 323.041,566.084 324.707,563.251 326.5,560.5C 329.215,563.214 331.549,566.214 333.5,569.5C 334.399,564.179 335.232,558.846 336,553.5C 338.117,548.317 339.95,542.984 341.5,537.5C 342.769,535.936 343.936,534.269 345,532.5C 346.688,527.231 348.188,521.898 349.5,516.5C 352.525,513.504 353.192,510.004 351.5,506C 352.257,504.488 353.257,503.154 354.5,502C 351.449,501.143 348.783,501.81 346.5,504C 346.307,505.645 346.14,507.479 346,509.5C 345.612,508.572 344.945,507.905 344,507.5C 342.899,508.291 342.066,508.291 341.5,507.5C 342.061,505.574 342.227,503.574 342,501.5C 342.308,502.308 342.808,502.975 343.5,503.5C 345.356,501.024 345.689,498.524 344.5,496C 345.922,493.322 346.922,490.488 347.5,487.5C 347.61,485.626 346.944,484.126 345.5,483C 347,480.833 348.5,478.667 350,476.5C 350.133,473.475 351.133,470.808 353,468.5C 353.925,469.047 354.758,469.713 355.5,470.5C 355.158,473.145 353.825,475.645 351.5,478C 352.097,479.628 351.763,481.295 350.5,483C 353.487,487.185 357.32,488.352 362,486.5C 362.34,482.442 363.007,478.442 364,474.5C 366.903,473.931 368.903,472.265 370,469.5C 370.212,466.242 370.712,463.076 371.5,460C 371.167,459.667 370.833,459.333 370.5,459C 372.587,458.208 374.421,457.041 376,455.5C 376.624,448.434 378.79,441.934 382.5,436C 381.075,434.286 381.408,432.953 383.5,432C 382.874,431.25 382.374,430.416 382,429.5C 381.043,431.709 379.876,431.543 378.5,429C 381.334,428.955 383.834,428.121 386,426.5C 386.716,423.28 387.883,420.28 389.5,417.5C 390.324,414.215 390.824,410.882 391,407.5C 392.702,406.633 394.869,405.966 397.5,405.5C 398.023,402.11 398.857,398.777 400,395.5C 401.879,391.175 403.879,386.842 406,382.5C 409.309,379.548 411.309,375.881 412,371.5C 414.324,370.193 415.657,368.193 416,365.5C 417.615,364.614 419.115,363.614 420.5,362.5 Z"/></g>
<g><path style="opacity:0.004" fill="#00ff00" d="M 297.5,519.5 C 298.833,519.5 299.5,520.167 299.5,521.5C 298.5,521.167 297.833,520.5 297.5,519.5 Z"/></g>
<g><path style="opacity:0.004" fill="#4d3bff" d="M 292.5,487.5 C 293.11,488.391 293.443,489.391 293.5,490.5C 291.618,489.779 291.285,488.779 292.5,487.5 Z"/></g>
</svg>
