<?xml version="1.0" standalone="no"?>
<!DOCTYPE svg PUBLIC "-//W3C//DTD SVG 20010904//EN"
 "http://www.w3.org/TR/2001/REC-SVG-20010904/DTD/svg10.dtd">
<svg version="1.0" xmlns="http://www.w3.org/2000/svg"
 width="512.000000pt" height="512.000000pt" viewBox="0 0 512.000000 512.000000"
 preserveAspectRatio="xMidYMid meet">

<g transform="translate(0.000000,512.000000) scale(0.100000,-0.100000)"
fill="#000000" stroke="none">
<path d="M2390 5105 c-103 -16 -259 -65 -360 -113 -59 -28 -94 -54 -166 -126
-132 -132 -201 -269 -240 -473 -17 -92 -23 -332 -10 -410 l7 -41 107 -7 c457
-32 934 82 1266 303 l90 59 32 -74 c55 -126 145 -227 261 -293 57 -33 54 -35
68 37 9 43 24 51 45 25 17 -21 18 -19 24 51 7 75 -6 281 -24 378 -34 184 -88
297 -190 399 -231 232 -569 338 -910 285z"/>
<path d="M1654 3774 c19 -123 28 -322 23 -479 -9 -261 -42 -450 -113 -644
l-37 -100 -106 -40 c-58 -22 -163 -60 -233 -84 -154 -54 -253 -110 -334 -191
-175 -176 -322 -692 -384 -1350 -25 -261 -11 -390 50 -459 30 -34 119 -74 305
-137 429 -145 1158 -270 1675 -287 582 -19 1352 100 1897 292 143 51 188 79
240 153 35 51 34 420 -2 677 -36 251 -129 606 -227 863 -43 112 -59 142 -101
188 -97 106 -286 217 -537 315 -74 29 -141 57 -148 64 -17 15 -79 191 -102
290 -50 211 -69 486 -51 733 7 85 14 168 17 185 3 18 -9 -8 -26 -58 -17 -49
-39 -105 -49 -125 -10 -19 -26 -66 -34 -105 -36 -163 -127 -342 -258 -507
l-69 -88 0 -73 c0 -40 6 -97 14 -127 l14 -54 -41 -60 c-183 -272 -371 -394
-559 -365 -131 21 -277 138 -395 316 l-35 52 20 78 c11 43 24 111 27 150 l7
73 -63 77 c-146 182 -250 387 -283 563 -4 19 -21 67 -39 105 -17 39 -39 97
-49 130 -10 33 -16 46 -14 29z"/>
</g>
</svg>
