<?xml version="1.0" standalone="no"?>
<!DOCTYPE svg PUBLIC "-//W3C//DTD SVG 20010904//EN"
 "http://www.w3.org/TR/2001/REC-SVG-20010904/DTD/svg10.dtd">
<svg version="1.0" xmlns="http://www.w3.org/2000/svg"
 width="512.000000pt" height="512.000000pt" viewBox="0 0 512.000000 512.000000"
 preserveAspectRatio="xMidYMid meet">

<g transform="translate(0.000000,512.000000) scale(0.100000,-0.100000)"
fill="#000000" stroke="none">
<path d="M2508 5027 c-42 -40 -79 -82 -83 -94 -3 -13 -11 -23 -17 -23 -6 0 -8
10 -5 23 6 21 5 21 -8 4 -11 -15 -17 -17 -35 -7 -20 11 -20 13 -6 35 15 22 14
23 -14 21 -18 -1 -44 -15 -63 -32 -17 -17 -59 -46 -92 -64 -142 -78 -304 -227
-374 -343 -88 -149 -111 -268 -92 -495 11 -130 22 -212 36 -279 5 -19 1 -23
-20 -23 -19 0 -28 -8 -36 -27 -23 -58 19 -284 63 -346 13 -17 35 -80 50 -139
77 -311 292 -596 537 -711 146 -69 290 -63 449 17 241 121 459 412 533 711 13
50 34 104 47 122 29 40 60 153 68 254 7 79 -4 119 -31 119 -19 0 -19 -3 4 88
103 405 7 714 -273 881 -62 37 -238 111 -264 111 -8 0 -24 8 -35 18 -11 9 -17
11 -13 5 12 -21 -12 -15 -27 7 -8 11 -17 17 -20 14 -14 -14 -114 103 -134 154
l-19 53 -44 -32 -44 -32 23 38 c12 21 20 39 18 41 -1 2 -37 -29 -79 -69z m-16
-58 c-9 -23 -18 -37 -20 -31 -3 10 24 72 32 72 3 0 -3 -19 -12 -41z"/>
<path d="M3120 2589 c-49 -104 -178 -288 -262 -373 -64 -64 -101 -92 -162
-122 -71 -35 -87 -39 -156 -39 -68 0 -85 4 -152 38 -136 67 -295 255 -388 460
-19 42 -37 76 -40 77 -3 0 -14 -13 -24 -29 -58 -86 -323 -219 -656 -330 -179
-59 -309 -149 -378 -261 -150 -244 -260 -704 -303 -1267 -13 -165 -5 -242 31
-313 24 -46 31 -52 110 -85 282 -119 721 -226 1185 -289 323 -44 421 -51 695
-50 373 0 672 30 1019 100 361 73 718 181 796 240 74 57 84 81 91 240 17 362
-78 861 -247 1299 -37 95 -50 117 -98 165 -110 110 -321 221 -623 331 -79 28
-179 70 -223 93 -74 38 -156 106 -180 150 -9 16 -14 12 -35 -35z"/>
</g>
</svg>
