<?xml version="1.0" encoding="UTF-8" standalone="no"?>
<svg
   xmlns:dc="http://purl.org/dc/elements/1.1/"
   xmlns:cc="http://creativecommons.org/ns#"
   xmlns:rdf="http://www.w3.org/1999/02/22-rdf-syntax-ns#"
   xmlns:svg="http://www.w3.org/2000/svg"
   xmlns="http://www.w3.org/2000/svg"
   xmlns:sodipodi="http://sodipodi.sourceforge.net/DTD/sodipodi-0.dtd"
   xmlns:inkscape="http://www.inkscape.org/namespaces/inkscape"
   width="138.81084mm"
   height="179.57022mm"
   viewBox="0 0 138.81084 179.57023"
   version="1.1"
   id="svg8"
   inkscape:version="1.0.2-2 (e86c870879, 2021-01-15)"
   sodipodi:docname="male.svg">
  <defs
     id="defs2" />
  <sodipodi:namedview
     id="base"
     pagecolor="#ffffff"
     bordercolor="#666666"
     borderopacity="1.0"
     inkscape:pageopacity="0.0"
     inkscape:pageshadow="2"
     inkscape:zoom="1.4"
     inkscape:cx="241.52159"
     inkscape:cy="354.65828"
     inkscape:document-units="mm"
     inkscape:current-layer="layer1"
     inkscape:document-rotation="0"
     showgrid="false"
     fit-margin-top="0"
     fit-margin-left="0"
     fit-margin-right="0"
     fit-margin-bottom="0"
     inkscape:window-width="2560"
     inkscape:window-height="1351"
     inkscape:window-x="-9"
     inkscape:window-y="-9"
     inkscape:window-maximized="1" />
  <metadata
     id="metadata5">
    <rdf:RDF>
      <cc:Work
         rdf:about="">
        <dc:format>image/svg+xml</dc:format>
        <dc:type
           rdf:resource="http://purl.org/dc/dcmitype/StillImage" />
        <dc:title></dc:title>
      </cc:Work>
    </rdf:RDF>
  </metadata>
  <g
     inkscape:label="Layer 1"
     inkscape:groupmode="layer"
     id="layer1"
     transform="translate(-7.9687471,11.231668)">
    <g
       transform="matrix(0.03527778,0,0,-0.03527778,-12.956525,168.54713)"
       fill="#000000"
       stroke="none"
       id="g871"
       style="fill:#005c7e;fill-opacity:1">
      <path
         d="m 2508,5027 c -42,-40 -79,-82 -83,-94 -3,-13 -11,-23 -17,-23 -6,0 -8,10 -5,23 6,21 5,21 -8,4 -11,-15 -17,-17 -35,-7 -20,11 -20,13 -6,35 15,22 14,23 -14,21 -18,-1 -44,-15 -63,-32 -17,-17 -59,-46 -92,-64 -142,-78 -304,-227 -374,-343 -88,-149 -111,-268 -92,-495 11,-130 22,-212 36,-279 5,-19 1,-23 -20,-23 -19,0 -28,-8 -36,-27 -23,-58 19,-284 63,-346 13,-17 35,-80 50,-139 77,-311 292,-596 537,-711 146,-69 290,-63 449,17 241,121 459,412 533,711 13,50 34,104 47,122 29,40 60,153 68,254 7,79 -4,119 -31,119 -19,0 -19,-3 4,88 103,405 7,714 -273,881 -62,37 -238,111 -264,111 -8,0 -24,8 -35,18 -11,9 -17,11 -13,5 12,-21 -12,-15 -27,7 -8,11 -17,17 -20,14 -14,-14 -114,103 -134,154 l -19,53 -44,-32 -44,-32 23,38 c 12,21 20,39 18,41 -1,2 -37,-29 -79,-69 z m -16,-58 c -9,-23 -18,-37 -20,-31 -3,10 24,72 32,72 3,0 -3,-19 -12,-41 z"
         id="path867"
         style="fill:#005c7e;fill-opacity:1" />
      <path
         d="m 3120,2589 c -49,-104 -178,-288 -262,-373 -64,-64 -101,-92 -162,-122 -71,-35 -87,-39 -156,-39 -68,0 -85,4 -152,38 -136,67 -295,255 -388,460 -19,42 -37,76 -40,77 -3,0 -14,-13 -24,-29 -58,-86 -323,-219 -656,-330 C 1101,2212 971,2122 902,2010 752,1766 642,1306 599,743 586,578 594,501 630,430 654,384 661,378 740,345 1022,226 1461,119 1925,56 2248,12 2346,5 2620,6 c 373,0 672,30 1019,100 361,73 718,181 796,240 74,57 84,81 91,240 17,362 -78,861 -247,1299 -37,95 -50,117 -98,165 -110,110 -321,221 -623,331 -79,28 -179,70 -223,93 -74,38 -156,106 -180,150 -9,16 -14,12 -35,-35 z"
         id="path869"
         style="fill:#005c7e;fill-opacity:1" />
    </g>
  </g>
</svg>
